<?xml version="1.0" standalone="no"?>
<!DOCTYPE svg PUBLIC "-//W3C//DTD SVG 1.1//EN" "http://www.w3.org/Graphics/SVG/1.1/DTD/svg11.dtd" >
<svg xmlns="http://www.w3.org/2000/svg" xmlns:xlink="http://www.w3.org/1999/xlink" version="1.1">
<metadata>
Created by FontForge 20170731 at Thu Jul 23 18:58:08 2020
 By Aleksey,,,
Copyright 2020 The KumbhSans Project Authors (https://github.com/xconsau/KumbhSans)
</metadata>
<defs>
<font id="KumbhSans-Bold" horiz-adv-x="1211" >
  <font-face 
    font-family="Kumbh Sans"
    font-weight="700"
    font-stretch="normal"
    units-per-em="2048"
    panose-1="0 0 0 0 0 0 0 0 0 0"
    ascent="1638"
    descent="-410"
    x-height="1000"
    cap-height="1500"
    bbox="-145 -559 2643 2055"
    underline-thickness="120"
    underline-position="-385"
    unicode-range="U+000D-FB05"
  />
<missing-glyph horiz-adv-x="1180" 
d="M130 1500h920v-1500h-920v1500zM913 1420h-646l323 -576zM636 762l314 -559v1119zM544 762l-314 560v-1119zM590 681l-337 -601h674z" />
    <glyph glyph-name=".notdef" horiz-adv-x="1180" 
d="M130 1500h920v-1500h-920v1500zM913 1420h-646l323 -576zM636 762l314 -559v1119zM544 762l-314 560v-1119zM590 681l-337 -601h674z" />
    <glyph glyph-name=".null" horiz-adv-x="0" 
 />
    <glyph glyph-name="nonmarkingreturn" horiz-adv-x="682" 
 />
    <glyph glyph-name="NULL" horiz-adv-x="0" 
 />
    <glyph glyph-name="NULL" horiz-adv-x="0" 
 />
    <glyph glyph-name="CR" unicode="&#xd;" horiz-adv-x="512" 
 />
    <glyph glyph-name="space" unicode=" " horiz-adv-x="460" 
 />
    <glyph glyph-name="exclam" unicode="!" horiz-adv-x="580" 
d="M179 380l-40 1120h301l-40 -1120h-221zM130 140q0 72 44 116t116 44t116 -44t44 -116t-44 -116t-116 -44t-116 44t-44 116z" />
    <glyph glyph-name="quotedbl" unicode="&#x22;" horiz-adv-x="927" 
d="M797 1520l-34 -513h-217l-35 513h286zM130 1520h286l-34 -513h-217z" />
    <glyph glyph-name="numbersign" unicode="#" horiz-adv-x="1476" 
d="M1025 440l-80 -440h-233l80 440h-194l-80 -440h-233l80 440h-235l22 190h248l40 223h-242l23 190h254l83 459h233l-83 -459h194l83 459h233l-83 -459h211l-22 -190h-224l-40 -223h218l-22 -190h-231zM827 630l40 223h-194l-40 -223h194z" />
    <glyph glyph-name="dollar" unicode="$" horiz-adv-x="1207" 
d="M100 233l142 252q60 -52 115 -94t118 -66.5t147 -24.5q80 0 131 44.5t51 108.5q0 63 -47.5 105t-122.5 74.5t-158.5 66t-158.5 79t-122.5 114.5t-47.5 172q0 139 94 241.5t266 131.5l-11 175h240l-11 -171q89 -10 170.5 -39.5t168.5 -71.5l-135 -231q-81 47 -147 74.5
t-162 27.5q-76 0 -122.5 -33.5t-46.5 -87.5q0 -57 47.5 -95t122 -69.5t158.5 -65.5t158.5 -80.5t122 -116t47.5 -172.5q0 -92 -43 -180.5t-128 -152.5t-211 -85l11 -174h-240l11 173q-112 14 -212 57.5t-195 113.5z" />
    <glyph glyph-name="percent" unicode="%" horiz-adv-x="1940" 
d="M501 1510q106 0 179 -33.5t118 -87t65 -116t20 -121.5q0 -58 -20 -121t-65 -116.5t-118 -87t-179 -33.5q-141 0 -224.5 57t-120 140t-36.5 161t36.5 161t120 140t224.5 57zM1312 1502h273l-957 -1503h-272zM501 1004q59 0 92 43t33 105t-33 105t-92 43q-58 0 -91 -43
t-33 -105t33 -105t91 -43zM1438 706q106 0 179 -33.5t118 -87.5t65 -116.5t20 -120.5q0 -78 -37 -161t-120.5 -140t-224.5 -57t-224.5 57t-120 140t-36.5 161q0 58 20 120.5t64.5 116.5t117.5 87.5t179 33.5zM1438 200q59 0 92 42.5t33 104.5q0 63 -33 106t-92 43t-91.5 -43
t-32.5 -106q0 -62 32.5 -104.5t91.5 -42.5z" />
    <glyph glyph-name="ampersand" unicode="&#x26;" horiz-adv-x="1610" 
d="M1354 -61l-58 38q-57 38 -112 78l-110 80q-188 -155 -413 -155q-147 0 -267.5 61t-192 164.5t-71.5 229.5q0 230 259 379q-58 92 -93 183.5t-35 173.5q0 100 52 178.5t143 124.5t207 46q105 0 186.5 -44.5t128 -120t46.5 -170.5q0 -120 -77.5 -228t-214.5 -182
q64 -74 145.5 -147t160.5 -141q49 77 84.5 159.5t62.5 167.5l265 -68q-45 -126 -95.5 -231t-112.5 -193q54 -40 108.5 -81t112.5 -77l37 -23zM760 1161q0 53 -27.5 90.5t-69.5 37.5q-47 0 -82.5 -45.5t-35.5 -107.5q0 -82 65 -194q150 105 150 219zM505 656q-52 -43 -79 -93
t-27 -110q0 -106 75.5 -171.5t178.5 -65.5q61 0 116 23.5t103 60.5q-98 83 -191 172t-176 184z" />
    <glyph glyph-name="quotesingle" unicode="'" horiz-adv-x="546" 
d="M130 1520h286l-34 -499h-217z" />
    <glyph glyph-name="parenleft" unicode="(" horiz-adv-x="751" 
d="M691 -289h-260q-150 203 -225.5 437.5t-75.5 475.5q0 242 75.5 477t225.5 439h260q-155 -202 -233 -437t-78 -476t78 -476.5t233 -439.5z" />
    <glyph glyph-name="parenright" unicode=")" horiz-adv-x="751" 
d="M60 -289q155 204 233 439.5t78 476.5t-78 476t-233 437h260q150 -204 225.5 -439t75.5 -477q0 -241 -75.5 -475.5t-225.5 -437.5h-260z" />
    <glyph glyph-name="asterisk" unicode="*" horiz-adv-x="1276" 
d="M130 1074l83 256l330 -149l-40 360h270l-40 -360l330 149l83 -256l-354 -74l244 -267l-219 -159l-179 315l-179 -315l-219 159l244 267z" />
    <glyph glyph-name="plus" unicode="+" horiz-adv-x="1166" 
d="M130 635h330v318h245v-318h331v-222h-331v-319h-245v319h-330v222z" />
    <glyph glyph-name="comma" unicode="," horiz-adv-x="594" 
d="M196 289h268l-182 -503h-202z" />
    <glyph glyph-name="hyphen" unicode="-" horiz-adv-x="1060" 
d="M130 380v204h800v-204h-800z" />
    <glyph glyph-name="period" unicode="." horiz-adv-x="580" 
d="M130 140q0 72 44 116t116 44t116 -44t44 -116t-44 -116t-116 -44t-116 44t-44 116z" />
    <glyph glyph-name="slash" unicode="/" horiz-adv-x="895" 
d="M905 1520l-655 -1540h-260l655 1540h260z" />
    <glyph glyph-name="zero" unicode="0" horiz-adv-x="1244" 
d="M80 750q0 240 61.5 415t182.5 270t298 95q178 0 298.5 -95t182 -270t61.5 -415t-61.5 -415t-182 -270t-298.5 -95q-177 0 -298 95t-182.5 270t-61.5 415zM386 750q0 -235 60 -372.5t176 -137.5t176 137.5t60 372.5q0 236 -60 373t-176 137t-176 -137t-60 -373z" />
    <glyph glyph-name="one" unicode="1" horiz-adv-x="943" 
d="M575 1500h168v-1500h-306v1146l-289 -105l-98 268z" />
    <glyph glyph-name="two" unicode="2" horiz-adv-x="1330" 
d="M130 1187q195 344 546 344q146 0 256.5 -57.5t172.5 -159t62 -232.5q0 -182 -128.5 -386.5t-391.5 -425.5h573v-270h-1028v197q199 163 351 328.5t238 310t86 242.5q0 80 -55.5 131.5t-142.5 51.5q-86 0 -163 -57t-157 -179z" />
    <glyph glyph-name="three" unicode="3" horiz-adv-x="1283" 
d="M905 784q137 -31 222.5 -120.5t85.5 -231.5q0 -141 -69 -244.5t-195.5 -160.5t-298.5 -57t-308 62t-252 193l210 196q50 -54 96 -94.5t103.5 -63.5t141.5 -23q116 0 189 56t73 151q0 104 -92 155.5t-250 51.5h-126v250h163q131 0 185.5 59t54.5 129q0 61 -31.5 97.5
t-79 53t-95.5 16.5q-162 0 -293 -159l-193 180q107 129 230.5 189.5t280.5 60.5q89 0 176.5 -27.5t158.5 -80t113.5 -128.5t42.5 -173q0 -121 -66.5 -204t-176.5 -119v-14z" />
    <glyph glyph-name="four" unicode="4" horiz-adv-x="1342" 
d="M70 500l749 1000h291v-956h202v-260h-202v-284h-286v284h-754v216zM400 544h424v23q0 142 3 281t16 288z" />
    <glyph glyph-name="five" unicode="5" horiz-adv-x="1213" 
d="M100 116l157 222q69 -49 138 -82.5t162 -33.5q122 0 189 76.5t67 177.5q0 106 -71.5 180.5t-200.5 74.5q-88 0 -152 -38l-50 -29l-151 174l71 665h791v-270h-549l-28 -261q53 9 106 9q152 0 275.5 -63.5t196 -177t72.5 -265.5q0 -155 -76 -268t-204.5 -174t-285.5 -61
q-125 0 -236 38.5t-221 105.5z" />
    <glyph glyph-name="six" unicode="6" horiz-adv-x="1263" 
d="M656 930q151 0 267.5 -63t183 -173t66.5 -252q0 -145 -69.5 -257.5t-191 -176.5t-277.5 -64q-162 0 -282 69.5t-186.5 195.5t-66.5 295q0 191 84.5 382.5t237 358.5t357.5 285l184 -209q-142 -82 -255 -186.5t-184 -219.5q29 7 61 11t71 4zM640 694q-98 0 -162.5 -68
t-64.5 -172t64 -172t161 -68q98 0 161.5 68.5t63.5 173.5q0 104 -62.5 171t-160.5 67z" />
    <glyph glyph-name="seven" unicode="7" horiz-adv-x="1202" 
d="M130 1230v270h972v-212l-511 -1288h-330l486 1230h-617z" />
    <glyph glyph-name="eight" unicode="8" horiz-adv-x="1260" 
d="M365 800q-102 49 -159.5 135.5t-57.5 201.5q0 118 60 206.5t168.5 137.5t253.5 49q144 0 252 -49t168 -137.5t60 -206.5q0 -114 -57.5 -201t-158.5 -136q125 -52 195.5 -153.5t70.5 -237.5q0 -131 -66.5 -230t-185.5 -154t-278 -55t-278 55t-185.5 154t-66.5 230
q0 136 70.5 237.5t194.5 153.5zM440 1110q0 -81 52.5 -130.5t137.5 -49.5q84 0 136.5 49.5t52.5 130.5q0 82 -52.5 131t-136.5 49q-85 0 -137.5 -49t-52.5 -131zM630 240q108 0 173.5 58t65.5 152q0 95 -65.5 152.5t-173.5 57.5t-173.5 -57.5t-65.5 -152.5q0 -94 65.5 -152
t173.5 -58z" />
    <glyph glyph-name="nine" unicode="9" horiz-adv-x="1263" 
d="M607 544q-150 0 -267 63t-183.5 173t-66.5 252q0 146 69.5 258t191 176t277.5 64q162 0 282.5 -69.5t186.5 -195.5t66 -295q0 -191 -84.5 -382.5t-237 -358.5t-357.5 -285l-184 209q143 83 256 187t183 219q-28 -7 -60.5 -11t-71.5 -4zM623 780q98 0 162.5 68t64.5 172
t-63.5 172t-161.5 68q-97 0 -161 -68.5t-64 -173.5q0 -104 63 -171t160 -67z" />
    <glyph glyph-name="colon" unicode=":" horiz-adv-x="580" 
d="M130 820q0 72 44 116t116 44t116 -44t44 -116t-44 -116t-116 -44t-116 44t-44 116zM130 140q0 72 44 116t116 44t116 -44t44 -116t-44 -116t-116 -44t-116 44t-44 116z" />
    <glyph glyph-name="semicolon" unicode=";" horiz-adv-x="670" 
d="M220 820q0 72 44 116t116 44t116 -44t44 -116t-44 -116t-116 -44t-116 44t-44 116zM246 289h268l-182 -503h-202z" />
    <glyph glyph-name="less" unicode="&#x3c;" horiz-adv-x="1300" 
d="M1170 1094v-241l-772 -331l772 -332v-241l-1050 477v191z" />
    <glyph glyph-name="equal" unicode="=" horiz-adv-x="1312" 
d="M130 823h1052v-205h-1052v205zM130 369h1052v-205h-1052v205z" />
    <glyph glyph-name="greater" unicode="&#x3e;" horiz-adv-x="1300" 
d="M1180 426l-1050 -477v241l772 332l-772 331v241l1050 -477v-191z" />
    <glyph glyph-name="question" unicode="?" horiz-adv-x="1120" 
d="M130 1383q82 61 191 104.5t238 43.5q150 0 245.5 -58.5t140.5 -149t45 -187.5q0 -81 -27 -140t-69.5 -106.5t-90.5 -93.5t-90.5 -100.5t-69.5 -128t-27 -176.5h-243q0 146 35 245.5t87 168.5t104.5 121.5t87.5 102t35 112.5q0 68 -47.5 117t-138.5 49q-82 0 -152 -39
t-133 -86zM334 140q0 72 44 116t116 44t116 -44t44 -116t-44 -116t-116 -44t-116 44t-44 116z" />
    <glyph glyph-name="at" unicode="@" horiz-adv-x="1998" 
d="M893 -263q-194 0 -339 63t-241.5 171.5t-144.5 245.5t-48 285q0 166 60 327.5t179.5 293.5t297.5 211t414 79q155 0 299.5 -47.5t259 -144t181.5 -242.5t67 -344q0 -157 -50 -282t-137 -198t-198 -73q-69 0 -126.5 38t-93.5 144q-54 -88 -147 -135t-183 -47
q-130 0 -232 59t-160.5 161.5t-58.5 230.5q0 107 40 199.5t108 162.5t154.5 109.5t179.5 39.5q99 0 189.5 -47.5t135.5 -138.5l8 126h199q-25 -144 -42.5 -298t-17.5 -300q0 -33 14.5 -75t51.5 -42q40 0 80.5 53.5t68 138t27.5 176.5q0 155 -51.5 270t-140 190.5
t-200.5 112.5t-232 37q-187 0 -327.5 -63.5t-234.5 -169t-141 -235.5t-47 -262q0 -117 36.5 -225t110 -193.5t184.5 -135.5t259 -50q107 0 216.5 29.5t218.5 90.5l78 -165q-127 -66 -259.5 -98.5t-264.5 -32.5zM721 543q0 -109 70.5 -179.5t181.5 -70.5q85 0 153 41.5
t107.5 113t39.5 160.5q0 66 -34.5 120t-93 86t-130.5 32q-80 0 -147 -41t-107 -110t-40 -152z" />
    <glyph glyph-name="A" unicode="A" horiz-adv-x="1513" 
d="M0 0l585 1500h343l585 -1500h-327l-126 336h-607l-126 -336h-327zM960 606q-60 176 -107 315t-96 287q-49 -148 -96.5 -287t-107.5 -315h407z" />
    <glyph glyph-name="B" unicode="B" horiz-adv-x="1319" 
d="M130 0v1500h548q241 0 374.5 -97.5t133.5 -283.5q0 -119 -56 -202t-160 -128q132 -45 203 -139.5t71 -234.5q0 -202 -144 -308.5t-403 -106.5h-567zM666 1230h-230v-330h230q100 0 155 42.5t55 122.5t-55 122.5t-155 42.5zM436 270h250q118 0 183 50.5t65 145.5
t-65 144.5t-183 49.5h-250v-390z" />
    <glyph glyph-name="C" unicode="C" horiz-adv-x="1459" 
d="M1389 191q-104 -103 -247 -162t-312 -59t-311.5 58t-247.5 163t-163 247.5t-58 311.5t58 311.5t163 247.5t247.5 163t311.5 58t312 -58.5t247 -162.5l-209 -209q-63 75 -153 117.5t-197 42.5q-136 0 -242 -66t-167 -181.5t-61 -262.5t61 -262t167 -181.5t242 -66.5
q107 0 197 42.5t153 117.5z" />
    <glyph glyph-name="D" unicode="D" horiz-adv-x="1568" 
d="M602 -2h-472v1500h472q442 0 679 -195.5t237 -552.5q0 -358 -237 -555t-679 -197zM609 268q290 0 444.5 126.5t154.5 355.5q0 228 -154.5 353t-444.5 125h-173v-960h173z" />
    <glyph glyph-name="E" unicode="E" horiz-adv-x="1174" 
d="M130 1500h894v-270h-618v-324h578v-270h-578v-366h648v-270h-924v1500z" />
    <glyph glyph-name="F" unicode="F" horiz-adv-x="1154" 
d="M130 1500h924v-270h-618v-324h578v-270h-578v-636h-306v1500z" />
    <glyph glyph-name="G" unicode="G" horiz-adv-x="1603" 
d="M830 1530q164 0 308 -57t251 -164l-229 -200q-60 72 -147.5 111.5t-194.5 39.5q-137 0 -240.5 -63.5t-160.5 -178.5t-57 -268t57 -267.5t160.5 -178.5t240.5 -64q168 0 284.5 94.5t156.5 254.5h-443v270h722l8 -55q3 -27 5 -55t2 -59q0 -156 -54 -287.5t-152.5 -228.5
t-232 -150.5t-292.5 -53.5q-166 0 -307 58.5t-245.5 163.5t-162 247.5t-57.5 310.5q0 169 58 311.5t163 247.5t247.5 163t311.5 58z" />
    <glyph glyph-name="H" unicode="H" horiz-adv-x="1529" 
d="M130 1500h306v-625h657v625h306v-1500h-306v605h-657v-605h-306v1500z" />
    <glyph glyph-name="I" unicode="I" horiz-adv-x="566" 
d="M436 1500v-1500h-306v1500h306z" />
    <glyph glyph-name="J" unicode="J" horiz-adv-x="586" 
d="M-125 -360l-20 260q295 0 295 251v1349h306v-1330q0 -274 -140.5 -402t-440.5 -128z" />
    <glyph glyph-name="K" unicode="K" horiz-adv-x="1433" 
d="M436 0h-306v1500h306v-669q35 55 73 112.5t86 124.5l364 432h392l-538 -638l620 -862h-410l-431 599l-156 -186v-413z" />
    <glyph glyph-name="L" unicode="L" horiz-adv-x="1154" 
d="M1074 0h-944v1500h306v-1230h638v-270z" />
    <glyph glyph-name="M" unicode="M" horiz-adv-x="1889" 
d="M130 0v1500h398l330 -707q23 -58 45.5 -116.5t43.5 -117.5q21 61 44.5 121t48.5 113l329 707h390v-1500h-306q0 274 5 535t21 523q-26 -69 -54.5 -137t-59.5 -134l-253 -542h-336l-252 540q-31 76 -60 149.5t-57 147.5q11 -174 17.5 -336.5t9 -341.5t2.5 -404h-306z" />
    <glyph glyph-name="N" unicode="N" horiz-adv-x="1640" 
d="M130 1500h304l770 -1008v1008h306v-1500h-309l-771 1010v-1010h-300v1500z" />
    <glyph glyph-name="O" unicode="O" horiz-adv-x="1660" 
d="M50 750q0 169 58 311.5t163 247.5t247.5 163t311.5 58t311.5 -58t247.5 -163t163 -247.5t58 -311.5t-58 -311.5t-163 -247.5t-247.5 -163t-311.5 -58t-311.5 58t-247.5 163t-163 247.5t-58 311.5zM360 750q0 -147 61 -262t167 -181.5t242 -66.5t242 66.5t167 181.5
t61 262t-61 262.5t-167 181.5t-242 66t-242 -66t-167 -181.5t-61 -262.5z" />
    <glyph glyph-name="P" unicode="P" horiz-adv-x="1271" 
d="M130 0v1500h518q279 0 436 -132.5t157 -359.5q0 -151 -71 -262t-203.5 -172t-318.5 -61h-213v-513h-305zM617 1245h-182v-478h182q154 0 234 68t80 172t-80 171t-234 67z" />
    <glyph glyph-name="Q" unicode="Q" horiz-adv-x="1660" 
d="M830 1530q169 0 311.5 -58t247.5 -163t163 -247.5t58 -311.5q0 -228 -105 -407t-283 -276q38 -2 76 -3.5t81 -1.5q53 0 109 2t117 6l-57 -280q-141 19 -248 41t-207.5 55t-224.5 85q-10 -1 -19 -1h-19q-169 0 -311.5 58t-247.5 163t-163 247.5t-58 311.5t58 311.5
t163 247.5t247.5 163t311.5 58zM830 240q136 0 242 66.5t167 181.5t61 262t-61 262.5t-167 181.5t-242 66t-242 -66t-167 -181.5t-61 -262.5t61 -262t167 -181.5t242 -66.5z" />
    <glyph glyph-name="R" unicode="R" horiz-adv-x="1310" 
d="M130 1500h510q274 0 428 -124.5t154 -336.5q0 -151 -80.5 -260.5t-227.5 -161.5l356 -617h-343l-332 575h-159v-575h-306v1500zM604 829q151 0 229.5 56t78.5 153t-78.5 152t-229.5 55h-168v-416h168z" />
    <glyph glyph-name="S" unicode="S" horiz-adv-x="1215" 
d="M598 240q92 0 154.5 51t62.5 126q0 60 -40.5 102t-106.5 75.5t-143 65.5q-76 32 -152.5 69.5t-140.5 88.5t-103 123t-39 173q0 125 63 218.5t177 145.5t265 52q241 0 462 -120l-126 -256q-98 62 -187 84t-148 22q-89 0 -142.5 -37.5t-53.5 -99.5q0 -53 38 -91t100.5 -68
t136.5 -61q77 -32 156 -70t146 -91t107.5 -128t40.5 -181q0 -135 -69 -239.5t-190 -164t-278 -59.5q-145 0 -291 51.5t-267 145.5l144 244q56 -49 129 -88t150.5 -61t144.5 -22z" />
    <glyph glyph-name="T" unicode="T" horiz-adv-x="1184" 
d="M10 1230v270h1164v-270h-429v-1230h-306v1230h-429z" />
    <glyph glyph-name="U" unicode="U" horiz-adv-x="1544" 
d="M436 1500v-840q0 -190 92 -305t244 -115t244 115t92 305v840h306v-840q0 -208 -80 -363t-224 -241t-338 -86q-193 0 -337.5 86t-224.5 241t-80 363v840h306z" />
    <glyph glyph-name="V" unicode="V" horiz-adv-x="1608" 
d="M30 1500h325q59 -144 109.5 -261.5t97 -227.5t94.5 -228.5t100 -264.5q14 -40 26 -76.5t22 -71.5q10 35 22 71.5t26 76.5q53 146 100.5 264.5t94 228.5t97.5 227.5t109 261.5h325l-613 -1500h-322z" />
    <glyph glyph-name="W" unicode="W" horiz-adv-x="2242" 
d="M480 0l-430 1500h313l251 -875q31 -105 55 -204l310 1079h316l293 -1022q9 35 19.5 71.5t21.5 76.5l250 874h313l-431 -1500h-313l-311 1085l-312 -1085h-345z" />
    <glyph glyph-name="X" unicode="X" horiz-adv-x="1572" 
d="M0 0l591 784l-541 716h370l366 -507l366 507h370l-541 -716l591 -784h-370l-432 573l-400 -573h-370z" />
    <glyph glyph-name="Y" unicode="Y" horiz-adv-x="1392" 
d="M-10 1500h331l382 -626l364 626h335l-540 -913v-587h-306v587z" />
    <glyph glyph-name="Z" unicode="Z" horiz-adv-x="1338" 
d="M50 215l777 1015h-710v270h1137v-216l-776 -1014h810v-270h-1238v215z" />
    <glyph glyph-name="bracketleft" unicode="[" horiz-adv-x="697" 
d="M130 -275v1815h497v-205h-252v-1405h252v-205h-497z" />
    <glyph glyph-name="backslash" unicode="\" horiz-adv-x="895" 
d="M250 1520l655 -1540h-260l-655 1540h260z" />
    <glyph glyph-name="bracketright" unicode="]" horiz-adv-x="697" 
d="M567 -275h-497v205h252v1405h-252v205h497v-1815z" />
    <glyph glyph-name="asciicircum" unicode="^" horiz-adv-x="1363" 
d="M569 1483h225l479 -999h-267l-325 698l-324 -698h-267z" />
    <glyph glyph-name="underscore" unicode="_" horiz-adv-x="1283" 
d="M90 205h1103v-205h-1103v205z" />
    <glyph glyph-name="grave" unicode="`" horiz-adv-x="816" 
d="M416 1130l-286 370h327l229 -370h-270z" />
    <glyph glyph-name="a" unicode="a" horiz-adv-x="1127" 
d="M98 275q0 100 57.5 179t158.5 125t231 46q41 0 86.5 -5t91.5 -13q-33 163 -237 163q-121 0 -243 -91l-99 243q104 50 205 74t192 24q145 0 251.5 -54.5t165.5 -154t59 -233.5v-578h-242l-19 107q-56 -59 -136.5 -93t-176.5 -34q-152 0 -248.5 82t-96.5 213zM386 341
q0 -50 38.5 -80.5t101.5 -30.5q86 0 144.5 52t58.5 128v20q-37 12 -79.5 19t-83.5 7q-85 0 -132.5 -30t-47.5 -85z" />
    <glyph glyph-name="b" unicode="b" horiz-adv-x="1284" 
d="M130 0v1500h288v-599q63 56 144 87.5t175 31.5q141 0 251 -67.5t173 -185t63 -267.5t-63 -267.5t-173 -185t-251 -67.5q-97 0 -181 33.5t-147 94.5l-7 -108h-272zM672 230q110 0 182 77t72 193t-72 193t-182 77t-182 -77t-72 -193t72 -193t182 -77z" />
    <glyph glyph-name="c" unicode="c" horiz-adv-x="1067" 
d="M1007 128q-73 -70 -174.5 -109t-220.5 -39q-159 0 -283.5 67.5t-196.5 185t-72 267.5t72 267.5t196.5 185t283.5 67.5q119 0 220.5 -39t174.5 -109l-203 -191q-72 89 -192 89q-110 0 -182 -77t-72 -193t72 -193t182 -77q120 0 192 89z" />
    <glyph glyph-name="d" unicode="d" horiz-adv-x="1284" 
d="M60 500q0 150 63 267.5t173.5 185t250.5 67.5q94 0 175 -31.5t144 -87.5v599h288v-1500h-272l-7 108q-63 -61 -146.5 -94.5t-181.5 -33.5q-140 0 -250.5 67.5t-173.5 185t-63 267.5zM358 500q0 -116 72 -193t182 -77t182 77t72 193t-72 193t-182 77t-182 -77t-72 -193z
" />
    <glyph glyph-name="e" unicode="e" horiz-adv-x="1171" 
d="M331 414q27 -83 99.5 -135t169.5 -52q104 0 172.5 33.5t124.5 86.5l174 -208q-116 -91 -229.5 -125t-217.5 -34q-166 0 -293 67.5t-199 186t-72 269.5q0 149 69 265.5t188.5 184t271.5 67.5q151 0 268.5 -67t185.5 -184t68 -268v-87h-780zM815 574q-21 88 -86 142
t-156 54q-92 0 -159.5 -55t-88.5 -141h490z" />
    <glyph glyph-name="f" unicode="f" horiz-adv-x="911" 
d="M235 1000v135q0 122 53 208t140 131.5t188 45.5q66 0 133.5 -20t131.5 -62l-111 -203q-25 21 -53 28t-51 7q-64 0 -103.5 -42.5t-39.5 -131.5v-96h243v-250h-243v-750h-288v750h-165v250h165z" />
    <glyph glyph-name="g" unicode="g" horiz-adv-x="1284" 
d="M547 1020q98 0 181.5 -33.5t146.5 -94.5l7 108h272v-883q0 -192 -72.5 -335t-203 -222.5t-306.5 -79.5q-97 0 -206 27t-223 84l87 239q50 -42 140 -71.5t173 -29.5q149 0 236 99.5t87 268.5v2q-63 -56 -144 -87.5t-175 -31.5q-140 0 -250.5 67.5t-173.5 185t-63 267.5
t63 267.5t173.5 185t250.5 67.5zM612 230q110 0 182 77t72 193t-72 193t-182 77t-182 -77t-72 -193t72 -193t182 -77z" />
    <glyph glyph-name="h" unicode="h" horiz-adv-x="1210" 
d="M130 0v1500h288v-597q119 117 296 117q386 0 386 -486v-534h-288v536q0 113 -47.5 173.5t-135.5 60.5q-94 0 -152.5 -65.5t-58.5 -169.5v-535h-288z" />
    <glyph glyph-name="i" unicode="i" horiz-adv-x="516" 
d="M98 1340q0 72 44 116t116 44t116 -44t44 -116t-44 -116t-116 -44t-116 44t-44 116zM114 0v1000h288v-1000h-288z" />
    <glyph glyph-name="j" unicode="j" horiz-adv-x="529" 
d="M111 1340q0 72 44 116t116 44t116 -44t44 -116t-44 -116t-116 -44t-116 44t-44 116zM127 -118v1118h288v-1151q0 -178 -95 -273.5t-274 -95.5q-92 0 -187 37v236q55 -23 107 -23q70 0 115.5 40.5t45.5 111.5z" />
    <glyph glyph-name="k" unicode="k" horiz-adv-x="1154" 
d="M130 0v1500h288v-910q30 47 66 91.5t79 94.5l194 224h315l-384 -449l456 -551h-353l-286 338l-87 -102v-236h-288z" />
    <glyph glyph-name="l" unicode="l" horiz-adv-x="548" 
d="M418 1540v-1540h-288v1540h288z" />
    <glyph glyph-name="m" unicode="m" horiz-adv-x="1852" 
d="M418 0h-288v1000h272l7 -106q106 126 287 126q231 0 327 -197q50 95 135 146t200 51q182 0 283 -127.5t101 -354.5v-538h-288v538q0 116 -54.5 174t-131.5 58q-78 0 -133 -60t-55 -179v-531h-288v538q0 116 -54.5 174t-131.5 58q-78 0 -133 -60t-55 -179v-531z" />
    <glyph glyph-name="n" unicode="n" horiz-adv-x="1210" 
d="M130 0v1000h252l12 -122q59 68 141.5 105t181.5 37q175 0 279 -115.5t104 -321.5v-583h-289v527q0 243 -182 243q-94 0 -152.5 -69t-58.5 -194v-507h-288z" />
    <glyph glyph-name="o" unicode="o" horiz-adv-x="1187" 
d="M60 500q0 150 69.5 267.5t190 185t274.5 67.5t274 -67.5t189.5 -185t69.5 -267.5t-69.5 -267.5t-189.5 -185t-274 -67.5t-274.5 67.5t-190 185t-69.5 267.5zM340 500q0 -116 72 -193t182 -77t182 77t72 193t-72 193t-182 77t-182 -77t-72 -193z" />
    <glyph glyph-name="p" unicode="p" horiz-adv-x="1284" 
d="M130 1000h272l7 -108q63 61 147 94.5t181 33.5q141 0 251 -67.5t173 -185t63 -267.5t-63 -267.5t-173 -185t-251 -67.5q-94 0 -175 31.5t-144 87.5v-599h-288v1500zM672 770q-110 0 -182 -77t-72 -193t72 -193t182 -77t182 77t72 193t-72 193t-182 77z" />
    <glyph glyph-name="q" unicode="q" horiz-adv-x="1284" 
d="M60 500q0 150 63 267.5t173.5 185t250.5 67.5q98 0 181.5 -33.5t146.5 -94.5l7 108h272v-1500h-288v599q-63 -56 -144 -87.5t-175 -31.5q-140 0 -250.5 67.5t-173.5 185t-63 267.5zM358 500q0 -116 72 -193t182 -77t182 77t72 193t-72 193t-182 77t-182 -77t-72 -193z
" />
    <glyph glyph-name="r" unicode="r" horiz-adv-x="810" 
d="M130 0v1000h252l14 -143q109 163 300 163q65 0 134 -20l-40 -249q-58 19 -114 19q-116 0 -187 -85.5t-71 -243.5v-441h-288z" />
    <glyph glyph-name="s" unicode="s" horiz-adv-x="962" 
d="M70 127l136 217q86 -57 158.5 -90.5t129.5 -33.5q44 0 71 20t27 51q0 45 -50.5 73t-116.5 55q-70 29 -140.5 65.5t-118 94.5t-47.5 150q0 127 100.5 209t284.5 82q90 0 189.5 -22.5t181.5 -72.5l-127 -219q-44 29 -114.5 51.5t-119.5 22.5q-28 0 -61.5 -11.5t-33.5 -44.5
q0 -37 46.5 -61t110.5 -49q69 -27 142 -63.5t123.5 -97t50.5 -158.5t-54 -169t-144 -108.5t-199 -37.5q-103 0 -213.5 36t-211.5 111z" />
    <glyph glyph-name="t" unicode="t" horiz-adv-x="881" 
d="M70 1000h165v250h288v-250h243v-250h-243v-368q0 -71 45.5 -111.5t115.5 -40.5q52 0 107 23v-236q-95 -37 -187 -37q-178 0 -273.5 95.5t-95.5 273.5v401h-165v250z" />
    <glyph glyph-name="u" unicode="u" 
d="M110 999h289v-536q0 -112 47 -173t135 -61q94 0 152.5 66t58.5 169h1v536h288v-1000h-252l-12 123q-59 -68 -141 -105.5t-180 -37.5q-190 0 -288 123t-98 362v534z" />
    <glyph glyph-name="v" unicode="v" horiz-adv-x="1070" 
d="M-10 1000h313l181 -487q14 -38 31.5 -111t27.5 -132h4q12 59 30.5 131t32.5 112l167 487h303l-395 -1000h-280z" />
    <glyph glyph-name="w" unicode="w" horiz-adv-x="1747" 
d="M30 1000h303l163 -519q12 -39 22.5 -74t19.5 -67q8 32 17.5 67t20.5 74l163 519h287l163 -519q12 -39 22.5 -74t19.5 -68q8 33 17.5 68t20.5 74l163 519h285l-335 -1000h-285q-58 176 -110.5 346t-98.5 343q-43 -175 -99 -347t-121 -342h-303z" />
    <glyph glyph-name="x" unicode="x" horiz-adv-x="1228" 
d="M414 523l-360 477h351l204 -295l203 295h356l-369 -470l409 -530h-351l-242 348l-239 -348h-356z" />
    <glyph glyph-name="y" unicode="y" horiz-adv-x="1223" 
d="M361 1000l234 -489q16 -32 30 -73t24 -90l270 652h304l-622 -1500h-303l228 550l-466 950h301z" />
    <glyph glyph-name="z" unicode="z" horiz-adv-x="1162" 
d="M100 0v135l483 615h-455v250h911v-136l-482 -614h505v-250h-962z" />
    <glyph glyph-name="braceleft" unicode="{" horiz-adv-x="706" 
d="M130 543v181q156 10 156 154v360q0 83 31 152t107 110t212 41v-204q-63 0 -86.5 -34.5t-23.5 -101.5v-259q0 -230 -135 -308q135 -79 135 -309v-259q0 -67 23.5 -101.5t86.5 -34.5v-204q-136 0 -212 41t-107 110t-31 152v360q0 144 -156 154z" />
    <glyph glyph-name="bar" unicode="|" horiz-adv-x="500" 
d="M370 1540v-1790h-240v1790h240z" />
    <glyph glyph-name="braceright" unicode="}" horiz-adv-x="706" 
d="M70 -70q63 0 86.5 34.5t23.5 101.5v259q0 230 135 309q-135 78 -135 308v259q0 67 -23.5 101.5t-86.5 34.5v204q136 0 212 -41t107 -110t31 -152v-360q0 -144 156 -154v-181q-156 -10 -156 -154v-360q0 -83 -31 -152t-107 -110t-212 -41v204z" />
    <glyph glyph-name="asciitilde" unicode="~" horiz-adv-x="1380" 
d="M1250 561q-86 -80 -160.5 -111.5t-141.5 -31.5q-68 0 -130 22.5t-121 52.5t-118 52.5t-122 22.5q-73 0 -153 -44.5t-174 -163.5v240q100 93 184.5 129t157.5 36q71 0 133.5 -22.5t121.5 -51.5t116 -51.5t117 -22.5q66 0 137 40t153 144v-240z" />
    <glyph glyph-name="uni00A0" unicode="&#xa0;" horiz-adv-x="460" 
 />
    <glyph glyph-name="exclamdown" unicode="&#xa1;" horiz-adv-x="580" 
d="M130 860q0 72 44 116t116 44t116 -44t44 -116t-44 -116t-116 -44t-116 44t-44 116zM179 620h221l40 -1120h-301z" />
    <glyph glyph-name="cent" unicode="&#xa2;" horiz-adv-x="1067" 
d="M470 1152l-12 218h240l-11 -206q193 -23 320 -144l-203 -191q-72 89 -192 89q-110 0 -182 -77t-72 -193t72 -193t182 -77q120 0 192 89l203 -191q-128 -121 -319 -144l10 -189h-240l11 201q-121 28 -213.5 99t-144 175t-51.5 230q0 127 52 231t144.5 175t213.5 98z" />
    <glyph glyph-name="sterling" unicode="&#xa3;" horiz-adv-x="1232" 
d="M130 850h134q-28 105 -28 203q0 140 54.5 247.5t156 168.5t241.5 61q282 0 434 -246l-198 -142q-43 73 -101 106.5t-115 33.5q-79 0 -139 -58.5t-60 -163.5q0 -49 8 -102.5t19 -107.5h388v-205h-342q7 -32 11 -60.5t4 -51.5q0 -76 -21 -154.5t-75 -158.5h600v-220h-952
v144l9 10q93 104 136 191.5t43 184.5q0 56 -13 115h-194v205z" />
    <glyph glyph-name="currency" unicode="&#xa4;" horiz-adv-x="1371" 
d="M110 350l152 147q-39 60 -55.5 125t-16.5 129t16.5 128.5t55.5 124.5l-152 148l164 159l155 -152q56 29 121 45.5t136 16.5t136 -16.5t120 -45.5l155 152l164 -159l-151 -147q39 -60 55.5 -125t16.5 -129t-16.5 -129t-55.5 -126l151 -146l-164 -159l-154 152
q-56 -30 -121 -46.5t-136 -16.5t-136.5 16.5t-121.5 46.5l-154 -152zM687 485q115 0 185 77.5t70 187.5t-70 188t-186 78q-115 0 -185.5 -77.5t-70.5 -188.5q0 -110 71 -187.5t186 -77.5z" />
    <glyph glyph-name="yen" unicode="&#xa5;" horiz-adv-x="1282" 
d="M240 1502l331 -551l332 551h289l-437 -724h299v-150h-350v-110h350v-150h-350v-367h-263v367h-351v150h351v110h-351v150h300l-438 724h288z" />
    <glyph glyph-name="brokenbar" unicode="&#xa6;" horiz-adv-x="505" 
d="M375 820h-245v720h245v-720zM130 470h245v-720h-245v720z" />
    <glyph glyph-name="section" unicode="&#xa7;" horiz-adv-x="1094" 
d="M130 721q0 90 32 154t90 114q-42 37 -67.5 86.5t-25.5 118.5q0 92 48 168.5t140.5 122.5t224.5 46q174 0 379 -102l-104 -186q-60 38 -128 57.5t-129 19.5q-70 0 -117.5 -26t-47.5 -78q0 -48 39 -80.5t100.5 -59.5t130 -57.5t130 -73t100.5 -106.5t39 -159
q0 -90 -32 -154t-90 -114q42 -37 67.5 -86.5t25.5 -118.5q0 -91 -48 -168t-140 -123t-225 -46q-174 0 -379 102l104 186q60 -38 128 -57.5t129 -19.5q70 0 117.5 26t47.5 78q0 48 -39 80.5t-100.5 59.5t-130 57.5t-130 73t-100.5 106.5t-39 159zM416 892q-28 -24 -45 -54.5
t-17 -71.5q0 -71 48.5 -115.5t123 -76t152.5 -65.5q28 24 45 54.5t17 71.5q0 72 -48.5 116t-123 75.5t-152.5 65.5z" />
    <glyph glyph-name="dieresis" unicode="&#xa8;" horiz-adv-x="949" 
d="M130 1330q0 63 38.5 101.5t101.5 38.5t101.5 -38.5t38.5 -101.5t-38.5 -101.5t-101.5 -38.5t-101.5 38.5t-38.5 101.5zM539 1330q0 63 38.5 101.5t101.5 38.5t101.5 -38.5t38.5 -101.5t-38.5 -101.5t-101.5 -38.5t-101.5 38.5t-38.5 101.5z" />
    <glyph glyph-name="copyright" unicode="&#xa9;" horiz-adv-x="1325" 
d="M60 500q0 174 78 310t214 214t311 78q174 0 310 -78t214 -214t78 -310t-78 -310t-214 -214t-310 -78q-175 0 -311 78t-214 214t-78 310zM200 500q0 -135 60 -241t165 -166.5t238 -60.5t237 60.5t164.5 166.5t60.5 241t-60.5 240.5t-164.5 166.5t-237 61t-238 -61
t-165 -166.5t-60 -240.5zM814 385l128 -120q-46 -44 -110 -69t-140 -25q-100 0 -179 42.5t-124.5 117t-45.5 169.5t45.5 169.5t124.5 117t179 42.5q76 0 140 -25t110 -69l-128 -120q-46 56 -122 56q-70 0 -115 -48.5t-45 -122.5q0 -73 45 -122t115 -49q76 0 122 56z" />
    <glyph glyph-name="ordfeminine" unicode="&#xaa;" horiz-adv-x="844" 
d="M60 990q0 107 89.5 178t228.5 71q57 0 127 -13q-24 116 -169 116q-85 0 -173 -65l-70 173q74 36 146 53t136 17q155 0 247 -86t92 -229v-411h-172l-14 77q-40 -43 -97 -67t-125 -24q-109 0 -177.5 58t-68.5 152zM393 1119q-128 0 -128 -82q0 -36 27.5 -57.5t72.5 -21.5
q61 0 102.5 37t41.5 91v14q-55 19 -116 19z" />
    <glyph glyph-name="guillemotleft" unicode="&#xab;" horiz-adv-x="1285" 
d="M1155 932l-361 -408l361 -408h-284l-350 408l350 408h284zM705 932l-362 -408l362 -408h-284l-351 408l351 408h284z" />
    <glyph glyph-name="logicalnot" unicode="&#xac;" horiz-adv-x="1165" 
d="M130 631h906v-498h-245v293h-661v205z" />
    <glyph glyph-name="uni00AD" unicode="&#xad;" horiz-adv-x="1166" 
d="M130 635h906v-222h-906v222z" />
    <glyph glyph-name="registered" unicode="&#xae;" horiz-adv-x="1342" 
d="M68 1018q0 174 78 310t214 214t311 78q174 0 310 -78t214 -214t78 -310t-78 -310t-214 -214t-310 -78q-175 0 -311 78t-214 214t-78 310zM208 1018q0 -135 60 -241t165 -166.5t238 -60.5q93 0 172.5 30.5t140.5 85.5h-187l-150 256h-37v-256h-178v698h249q134 0 208 -61
t74 -160q0 -138 -133 -194l162 -276q66 63 103.5 151t37.5 194q0 135 -60.5 240.5t-164.5 166.5t-237 61t-238 -61t-165 -166.5t-60 -240.5zM665 1066q54 0 86 18.5t32 58.5t-32 58t-86 18h-55v-153h55z" />
    <glyph glyph-name="macron" unicode="&#xaf;" horiz-adv-x="958" 
d="M130 1411h698v-205h-698v205z" />
    <glyph glyph-name="degree" unicode="&#xb0;" horiz-adv-x="877" 
d="M130 1210q0 90 40 160t110 110t160 40q89 0 159 -40t110.5 -110t40.5 -160t-40.5 -160t-110.5 -110t-159 -40q-90 0 -160 40t-110 110t-40 160zM321 1210q0 -55 33.5 -91.5t85.5 -36.5q51 0 84.5 36.5t33.5 91.5q0 56 -33.5 92t-84.5 36q-52 0 -85.5 -36t-33.5 -92z" />
    <glyph glyph-name="plusminus" unicode="&#xb1;" horiz-adv-x="1165" 
d="M130 872h331v318h245v-318h330v-222h-330v-319h-245v319h-331v222zM140 205h886v-205h-886v205z" />
    <glyph glyph-name="twosuperior" unicode="&#xb2;" horiz-adv-x="809" 
d="M68 1303q136 207 318 207q117 0 195 -69t78 -174q0 -87 -51 -162t-125 -138t-144 -114h342v-171h-585v145q196 166 280.5 265t84.5 163q0 37 -24 60.5t-61 23.5q-40 0 -85.5 -33.5t-89.5 -102.5z" />
    <glyph glyph-name="threesuperior" unicode="&#xb3;" horiz-adv-x="847" 
d="M68 816l134 136q53 -61 102.5 -88t100.5 -27q50 0 82 24t32 70q0 53 -44.5 75.5t-123.5 22.5h-54v133h54q61 0 98 29t37 72q0 36 -25.5 54.5t-63.5 18.5q-39 0 -81 -22t-83 -75l-127 117q74 80 148 117t162 37q109 0 185.5 -53t76.5 -158q0 -58 -27 -109t-80 -84
q62 -23 105 -69.5t43 -123.5q0 -108 -87.5 -179t-225.5 -71q-98 0 -181 39.5t-157 113.5z" />
    <glyph glyph-name="acute" unicode="&#xb4;" horiz-adv-x="816" 
d="M400 1130h-270l229 370h327z" />
    <glyph glyph-name="mu" unicode="&#xb5;" horiz-adv-x="1275" 
d="M400 1000v-536q0 -112 56.5 -173t144.5 -61q94 0 152.5 65.5t58.5 169.5v535h289v-675q0 -68 35 -105.5t102 -52.5l-27 -208q-247 0 -343 161q-43 -64 -108.5 -102t-158.5 -38q-53 0 -111 22t-90 60v-563h-234q-7 84 -15.5 149t-14.5 130t-6 149v1073h270z" />
    <glyph glyph-name="paragraph" unicode="&#xb6;" horiz-adv-x="1293" 
d="M68 1073q0 121 45 203t122.5 131.5t175.5 71t204 21.5h548v-1650h-210v1490h-130v-1490h-220v790q-254 0 -394.5 112.5t-140.5 320.5z" />
    <glyph glyph-name="periodcentered" unicode="&#xb7;" horiz-adv-x="579" 
d="M130 514q0 72 44 116t116 44t116 -44t44 -116t-44 -116t-116 -44t-116 44t-44 116z" />
    <glyph glyph-name="cedilla" unicode="&#xb8;" horiz-adv-x="688" 
d="M190 -279q51 -24 98 -24q41 0 68.5 17t27.5 46q0 30 -33.5 54.5t-107.5 24.5l13 33h-1l68 181h175l-68 -126q67 -22 97.5 -65.5t30.5 -98.5q0 -91 -70 -149t-179 -58q-105 0 -179 42z" />
    <glyph glyph-name="onesuperior" unicode="&#xb9;" horiz-adv-x="590" 
d="M128 1248l-60 161l265 91h127v-828h-192v625z" />
    <glyph glyph-name="ordmasculine" unicode="&#xba;" horiz-adv-x="1001" 
d="M500 1520q123 0 221 -53.5t154.5 -146.5t56.5 -214q0 -120 -57 -213.5t-154.5 -147t-219.5 -53.5t-220 53t-155.5 147t-57.5 215t57 214t155 146t220 53zM500 868q101 0 158 72t57 165q0 94 -56.5 166.5t-157.5 72.5q-100 0 -158.5 -72t-58.5 -166t58 -166t158 -72z" />
    <glyph glyph-name="guillemotright" unicode="&#xbb;" horiz-adv-x="1285" 
d="M580 105l362 408l-362 408h284l351 -408l-351 -408h-284zM414 105h-284l361 408l-361 408h284l350 -408z" />
    <glyph glyph-name="onequarter" unicode="&#xbc;" horiz-adv-x="1751" 
d="M482 -1h-226l967 1501h226zM130 1409l265 91h127v-828h-192v625l-140 -49zM963 321l387 507h175v-487h96v-175h-96v-166h-180v166h-382v155zM1163 341h182v229z" />
    <glyph glyph-name="onehalf" unicode="&#xbd;" horiz-adv-x="1861" 
d="M271 -1l967 1501h226l-967 -1501h-226zM190 1248l-60 161l265 91h127v-828h-192v625zM1251 521l-133 100q129 207 316 207q118 0 196 -69t78 -174q0 -87 -51 -162t-125 -138t-143 -114h342v-171h-586v145q196 166 281 265t85 163q0 38 -24 61t-61 23q-41 0 -86.5 -33.5
t-88.5 -102.5z" />
    <glyph glyph-name="threequarters" unicode="&#xbe;" horiz-adv-x="1838" 
d="M130 808l130 120q51 -58 88 -80t84 -22q60 0 95.5 26.5t35.5 71.5q0 54 -49 74.5t-118 20.5h-79v153h99q53 0 82.5 24.5t29.5 62.5q0 36 -25 57.5t-66 21.5q-46 0 -83 -24.5t-62 -53.5l-10 -13l-122 112l6 6q49 59 115 98t163 39q125 0 200.5 -63.5t75.5 -156.5
q0 -78 -45.5 -122.5t-84.5 -50.5v-2q68 -7 116.5 -67t48.5 -140q0 -100 -84 -168t-227 -68q-105 0 -178.5 37.5t-129.5 100.5zM1325 1501h226l-967 -1501h-226zM1050 322l387 507h175v-487h96v-175h-96v-166h-180v166h-382v155zM1250 342h182v229z" />
    <glyph glyph-name="questiondown" unicode="&#xbf;" horiz-adv-x="940" 
d="M716 870q0 -72 -44 -116t-116 -44t-116 44t-44 116t44 116t116 44t116 -44t44 -116zM920 -372q-82 -61 -191 -104.5t-238 -43.5q-150 0 -245 58.5t-140.5 149.5t-45.5 187q0 82 27 140.5t69.5 106t90.5 93.5t90.5 100.5t69.5 128t27 176.5h243q0 -146 -35 -245.5
t-87 -168.5t-104.5 -121.5t-87.5 -102t-35 -112.5q0 -67 47.5 -116.5t138.5 -49.5q82 0 152 39.5t133 85.5z" />
    <glyph glyph-name="Agrave" unicode="&#xc0;" horiz-adv-x="1513" 
d="M0 0l585 1500h343l585 -1500h-327l-126 336h-607l-126 -336h-327zM960 606q-60 176 -107 315t-96 287q-49 -148 -96.5 -287t-107.5 -315h407zM622 1630l-286 370h327l229 -370h-270z" />
    <glyph glyph-name="Aacute" unicode="&#xc1;" horiz-adv-x="1513" 
d="M0 0l585 1500h343l585 -1500h-327l-126 336h-607l-126 -336h-327zM960 606q-60 176 -107 315t-96 287q-49 -148 -96.5 -287t-107.5 -315h407zM892 1630h-270l229 370h327z" />
    <glyph glyph-name="Acircumflex" unicode="&#xc2;" horiz-adv-x="1513" 
d="M0 0l585 1500h343l585 -1500h-327l-126 336h-607l-126 -336h-327zM960 606q-60 176 -107 315t-96 287q-49 -148 -96.5 -287t-107.5 -315h407zM362 1630l229 370h333l229 -370h-250l-145 188l-146 -188h-250z" />
    <glyph glyph-name="Atilde" unicode="&#xc3;" horiz-adv-x="1513" 
d="M0 0l585 1500h343l585 -1500h-327l-126 336h-607l-126 -336h-327zM960 606q-60 176 -107 315t-96 287q-49 -148 -96.5 -287t-107.5 -315h407zM575 2020q68 0 116.5 -25t87 -57.5t75.5 -57.5t83 -25q98 0 104 126h128q0 -82 -20.5 -156t-72 -120.5t-144.5 -46.5
q-70 0 -117.5 25t-83.5 57.5t-71 57.5t-82 25q-100 0 -106 -127h-128q0 80 19.5 154t70 122t141.5 48z" />
    <glyph glyph-name="Adieresis" unicode="&#xc4;" horiz-adv-x="1513" 
d="M0 0l585 1500h343l585 -1500h-327l-126 336h-607l-126 -336h-327zM960 606q-60 176 -107 315t-96 287q-49 -148 -96.5 -287t-107.5 -315h407zM403 1830q0 63 38.5 101.5t101.5 38.5t101.5 -38.5t38.5 -101.5t-38.5 -101.5t-101.5 -38.5t-101.5 38.5t-38.5 101.5z
M812 1830q0 63 38.5 101.5t101.5 38.5t101.5 -38.5t38.5 -101.5t-38.5 -101.5t-101.5 -38.5t-101.5 38.5t-38.5 101.5z" />
    <glyph glyph-name="Aring" unicode="&#xc5;" horiz-adv-x="1513" 
d="M0 0l585 1500h343l585 -1500h-327l-126 336h-607l-126 -336h-327zM960 606q-60 176 -107 315t-96 287q-49 -148 -96.5 -287t-107.5 -315h407zM482 1765q0 119 78 197t197 78t197 -78t78 -197t-78 -197t-197 -78t-197 78t-78 197zM639 1765q0 -55 33.5 -91.5t84.5 -36.5
t84.5 36.5t33.5 91.5q0 56 -33.5 92.5t-84.5 36.5t-84.5 -36.5t-33.5 -92.5z" />
    <glyph glyph-name="AE" unicode="&#xc6;" horiz-adv-x="2204" 
d="M-10 0l884 1500h1045l35 -241h-692l56 -369h652l36 -241h-652l62 -409h723l35 -240h-999l-61 407h-567q-65 -103 -129.5 -204.5t-124.5 -202.5h-303zM694 647h384l-92 607q-58 -160 -131.5 -310.5t-160.5 -296.5z" />
    <glyph glyph-name="Ccedilla" unicode="&#xc7;" horiz-adv-x="1459" 
d="M1389 191q-104 -103 -247 -162t-312 -59t-311.5 58t-247.5 163t-163 247.5t-58 311.5t58 311.5t163 247.5t247.5 163t311.5 58t312 -58.5t247 -162.5l-209 -209q-63 75 -153 117.5t-197 42.5q-136 0 -242 -66t-167 -181.5t-61 -262.5t61 -262t167 -181.5t242 -66.5
q107 0 197 42.5t153 117.5zM599 -332q51 -24 98 -24q41 0 68.5 17t27.5 46q0 30 -33.5 54.5t-107.5 24.5l13 33h-1l68 181h175l-68 -126q67 -22 97.5 -65.5t30.5 -98.5q0 -91 -70 -149t-179 -58q-105 0 -179 42z" />
    <glyph glyph-name="Egrave" unicode="&#xc8;" horiz-adv-x="1174" 
d="M130 1500h894v-270h-618v-324h578v-270h-578v-366h648v-270h-924v1500zM472 1630l-286 370h327l229 -370h-270z" />
    <glyph glyph-name="Eacute" unicode="&#xc9;" horiz-adv-x="1174" 
d="M130 1500h894v-270h-618v-324h578v-270h-578v-366h648v-270h-924v1500zM742 1630h-270l229 370h327z" />
    <glyph glyph-name="Ecircumflex" unicode="&#xca;" horiz-adv-x="1174" 
d="M130 1500h894v-270h-618v-324h578v-270h-578v-366h648v-270h-924v1500zM212 1630l229 370h333l229 -370h-250l-145 188l-146 -188h-250z" />
    <glyph glyph-name="Edieresis" unicode="&#xcb;" horiz-adv-x="1174" 
d="M130 1500h894v-270h-618v-324h578v-270h-578v-366h648v-270h-924v1500zM253 1830q0 63 38.5 101.5t101.5 38.5t101.5 -38.5t38.5 -101.5t-38.5 -101.5t-101.5 -38.5t-101.5 38.5t-38.5 101.5zM662 1830q0 63 38.5 101.5t101.5 38.5t101.5 -38.5t38.5 -101.5t-38.5 -101.5
t-101.5 -38.5t-101.5 38.5t-38.5 101.5z" />
    <glyph glyph-name="Igrave" unicode="&#xcc;" horiz-adv-x="566" 
d="M436 1500v-1500h-306v1500h306zM149 1630l-286 370h327l229 -370h-270z" />
    <glyph glyph-name="Iacute" unicode="&#xcd;" horiz-adv-x="566" 
d="M436 1500v-1500h-306v1500h306zM419 1630h-270l229 370h327z" />
    <glyph glyph-name="Icircumflex" unicode="&#xce;" horiz-adv-x="566" 
d="M436 1500v-1500h-306v1500h306zM-111 1630l229 370h333l229 -370h-250l-145 188l-146 -188h-250z" />
    <glyph glyph-name="Idieresis" unicode="&#xcf;" horiz-adv-x="566" 
d="M436 1500v-1500h-306v1500h306zM-70 1830q0 63 38.5 101.5t101.5 38.5t101.5 -38.5t38.5 -101.5t-38.5 -101.5t-101.5 -38.5t-101.5 38.5t-38.5 101.5zM339 1830q0 63 38.5 101.5t101.5 38.5t101.5 -38.5t38.5 -101.5t-38.5 -101.5t-101.5 -38.5t-101.5 38.5t-38.5 101.5
z" />
    <glyph glyph-name="Eth" unicode="&#xd0;" horiz-adv-x="1598" 
d="M632 -2h-472v1500h472q442 0 679 -195.5t237 -552.5q0 -358 -237 -555t-679 -197zM639 268q290 0 444.5 126.5t154.5 355.5q0 228 -154.5 353t-444.5 125h-173v-960h173zM-5 623v204h800v-204h-800z" />
    <glyph glyph-name="Ntilde" unicode="&#xd1;" horiz-adv-x="1640" 
d="M130 1500h304l770 -1008v1008h306v-1500h-309l-771 1010v-1010h-300v1500zM638 2020q68 0 116.5 -25t87 -57.5t75.5 -57.5t83 -25q98 0 104 126h128q0 -82 -20.5 -156t-72 -120.5t-144.5 -46.5q-70 0 -117.5 25t-83.5 57.5t-71 57.5t-82 25q-100 0 -106 -127h-128
q0 80 19.5 154t70 122t141.5 48z" />
    <glyph glyph-name="Ograve" unicode="&#xd2;" horiz-adv-x="1660" 
d="M50 750q0 169 58 311.5t163 247.5t247.5 163t311.5 58t311.5 -58t247.5 -163t163 -247.5t58 -311.5t-58 -311.5t-163 -247.5t-247.5 -163t-311.5 -58t-311.5 58t-247.5 163t-163 247.5t-58 311.5zM360 750q0 -147 61 -262t167 -181.5t242 -66.5t242 66.5t167 181.5
t61 262t-61 262.5t-167 181.5t-242 66t-242 -66t-167 -181.5t-61 -262.5zM695 1630l-286 370h327l229 -370h-270z" />
    <glyph glyph-name="Oacute" unicode="&#xd3;" horiz-adv-x="1660" 
d="M50 750q0 169 58 311.5t163 247.5t247.5 163t311.5 58t311.5 -58t247.5 -163t163 -247.5t58 -311.5t-58 -311.5t-163 -247.5t-247.5 -163t-311.5 -58t-311.5 58t-247.5 163t-163 247.5t-58 311.5zM360 750q0 -147 61 -262t167 -181.5t242 -66.5t242 66.5t167 181.5
t61 262t-61 262.5t-167 181.5t-242 66t-242 -66t-167 -181.5t-61 -262.5zM965 1630h-270l229 370h327z" />
    <glyph glyph-name="Ocircumflex" unicode="&#xd4;" horiz-adv-x="1660" 
d="M50 750q0 169 58 311.5t163 247.5t247.5 163t311.5 58t311.5 -58t247.5 -163t163 -247.5t58 -311.5t-58 -311.5t-163 -247.5t-247.5 -163t-311.5 -58t-311.5 58t-247.5 163t-163 247.5t-58 311.5zM360 750q0 -147 61 -262t167 -181.5t242 -66.5t242 66.5t167 181.5
t61 262t-61 262.5t-167 181.5t-242 66t-242 -66t-167 -181.5t-61 -262.5zM435 1630l229 370h333l229 -370h-250l-145 188l-146 -188h-250z" />
    <glyph glyph-name="Otilde" unicode="&#xd5;" horiz-adv-x="1660" 
d="M50 750q0 169 58 311.5t163 247.5t247.5 163t311.5 58t311.5 -58t247.5 -163t163 -247.5t58 -311.5t-58 -311.5t-163 -247.5t-247.5 -163t-311.5 -58t-311.5 58t-247.5 163t-163 247.5t-58 311.5zM360 750q0 -147 61 -262t167 -181.5t242 -66.5t242 66.5t167 181.5
t61 262t-61 262.5t-167 181.5t-242 66t-242 -66t-167 -181.5t-61 -262.5zM648 2020q68 0 116.5 -25t87 -57.5t75.5 -57.5t83 -25q98 0 104 126h128q0 -82 -20.5 -156t-72 -120.5t-144.5 -46.5q-70 0 -117.5 25t-83.5 57.5t-71 57.5t-82 25q-100 0 -106 -127h-128
q0 80 19.5 154t70 122t141.5 48z" />
    <glyph glyph-name="Odieresis" unicode="&#xd6;" horiz-adv-x="1660" 
d="M50 750q0 169 58 311.5t163 247.5t247.5 163t311.5 58t311.5 -58t247.5 -163t163 -247.5t58 -311.5t-58 -311.5t-163 -247.5t-247.5 -163t-311.5 -58t-311.5 58t-247.5 163t-163 247.5t-58 311.5zM360 750q0 -147 61 -262t167 -181.5t242 -66.5t242 66.5t167 181.5
t61 262t-61 262.5t-167 181.5t-242 66t-242 -66t-167 -181.5t-61 -262.5zM476 1830q0 63 38.5 101.5t101.5 38.5t101.5 -38.5t38.5 -101.5t-38.5 -101.5t-101.5 -38.5t-101.5 38.5t-38.5 101.5zM885 1830q0 63 38.5 101.5t101.5 38.5t101.5 -38.5t38.5 -101.5t-38.5 -101.5
t-101.5 -38.5t-101.5 38.5t-38.5 101.5z" />
    <glyph glyph-name="multiply" unicode="&#xd7;" horiz-adv-x="1170" 
d="M423 523l-303 295l162 158l303 -295l303 295l162 -158l-303 -295l303 -295l-162 -158l-303 295l-303 -295l-162 158z" />
    <glyph glyph-name="Oslash" unicode="&#xd8;" horiz-adv-x="1700" 
d="M637 -4l-56 -136l-170 70l55 132q-181 96 -288.5 276.5t-107.5 411.5q0 169 58 311.5t163 247.5t247.5 163t311.5 58q110 0 212 -26l59 142l170 -70l-57 -138q182 -96 289 -276.5t107 -411.5q0 -169 -58 -311.5t-163 -247.5t-247.5 -163t-311.5 -58q-111 0 -213 26z
M576 328l380 920q-49 12 -106 12q-136 0 -242 -66t-167 -181.5t-61 -262.5q0 -136 52.5 -245t143.5 -177zM850 240q136 0 242 66.5t167 181.5t61 262q0 136 -52.5 245.5t-143.5 176.5l-381 -920q51 -12 107 -12z" />
    <glyph glyph-name="Ugrave" unicode="&#xd9;" horiz-adv-x="1544" 
d="M436 1500v-840q0 -190 92 -305t244 -115t244 115t92 305v840h306v-840q0 -208 -80 -363t-224 -241t-338 -86q-193 0 -337.5 86t-224.5 241t-80 363v840h306zM637 1630l-286 370h327l229 -370h-270z" />
    <glyph glyph-name="Uacute" unicode="&#xda;" horiz-adv-x="1544" 
d="M436 1500v-840q0 -190 92 -305t244 -115t244 115t92 305v840h306v-840q0 -208 -80 -363t-224 -241t-338 -86q-193 0 -337.5 86t-224.5 241t-80 363v840h306zM907 1630h-270l229 370h327z" />
    <glyph glyph-name="Ucircumflex" unicode="&#xdb;" horiz-adv-x="1544" 
d="M436 1500v-840q0 -190 92 -305t244 -115t244 115t92 305v840h306v-840q0 -208 -80 -363t-224 -241t-338 -86q-193 0 -337.5 86t-224.5 241t-80 363v840h306zM377 1630l229 370h333l229 -370h-250l-145 188l-146 -188h-250z" />
    <glyph glyph-name="Udieresis" unicode="&#xdc;" horiz-adv-x="1544" 
d="M436 1500v-840q0 -190 92 -305t244 -115t244 115t92 305v840h306v-840q0 -208 -80 -363t-224 -241t-338 -86q-193 0 -337.5 86t-224.5 241t-80 363v840h306zM418 1830q0 63 38.5 101.5t101.5 38.5t101.5 -38.5t38.5 -101.5t-38.5 -101.5t-101.5 -38.5t-101.5 38.5
t-38.5 101.5zM827 1830q0 63 38.5 101.5t101.5 38.5t101.5 -38.5t38.5 -101.5t-38.5 -101.5t-101.5 -38.5t-101.5 38.5t-38.5 101.5z" />
    <glyph glyph-name="Yacute" unicode="&#xdd;" horiz-adv-x="1392" 
d="M-10 1500h331l382 -626l364 626h335l-540 -913v-587h-306v587zM831 1630h-270l229 370h327z" />
    <glyph glyph-name="Thorn" unicode="&#xde;" horiz-adv-x="1252" 
d="M418 1500v-290h247q162 0 278 -58.5t177.5 -162t61.5 -237.5t-62 -238.5t-177.5 -164t-277.5 -59.5h-247v-290h-288v1500h288zM418 960v-420h175q141 0 215 53.5t74 156.5q0 210 -289 210h-175z" />
    <glyph glyph-name="germandbls" unicode="&#xdf;" horiz-adv-x="1136" 
d="M390 0h-260v1126q0 135 61 222.5t157.5 129.5t201.5 42q109 0 208.5 -42.5t163.5 -123.5t64 -199q0 -75 -26 -125t-64 -84t-76.5 -59t-64.5 -49t-26 -54q0 -34 34 -61t84.5 -55t100.5 -66t84 -93.5t34 -137.5q0 -110 -69 -204.5t-194 -152t-293 -57.5l-30 193
q91 0 165 25t118 73.5t44 119.5q0 64 -33 106.5t-81.5 74t-97 62t-81.5 70.5t-33 100q0 52 24.5 88t61 65.5t73 60.5t61 72.5t24.5 101.5q0 77 -43.5 125.5t-116.5 48.5q-70 0 -122.5 -56.5t-52.5 -202.5v-1084z" />
    <glyph glyph-name="agrave" unicode="&#xe0;" horiz-adv-x="1127" 
d="M98 275q0 100 57.5 179t158.5 125t231 46q41 0 86.5 -5t91.5 -13q-33 163 -237 163q-121 0 -243 -91l-99 243q104 50 205 74t192 24q145 0 251.5 -54.5t165.5 -154t59 -233.5v-578h-242l-19 107q-56 -59 -136.5 -93t-176.5 -34q-152 0 -248.5 82t-96.5 213zM386 341
q0 -50 38.5 -80.5t101.5 -30.5q86 0 144.5 52t58.5 128v20q-37 12 -79.5 19t-83.5 7q-85 0 -132.5 -30t-47.5 -85zM423 1130l-286 370h327l229 -370h-270z" />
    <glyph glyph-name="aacute" unicode="&#xe1;" horiz-adv-x="1127" 
d="M98 275q0 100 57.5 179t158.5 125t231 46q41 0 86.5 -5t91.5 -13q-33 163 -237 163q-121 0 -243 -91l-99 243q104 50 205 74t192 24q145 0 251.5 -54.5t165.5 -154t59 -233.5v-578h-242l-19 107q-56 -59 -136.5 -93t-176.5 -34q-152 0 -248.5 82t-96.5 213zM386 341
q0 -50 38.5 -80.5t101.5 -30.5q86 0 144.5 52t58.5 128v20q-37 12 -79.5 19t-83.5 7q-85 0 -132.5 -30t-47.5 -85zM693 1130h-270l229 370h327z" />
    <glyph glyph-name="acircumflex" unicode="&#xe2;" horiz-adv-x="1127" 
d="M98 275q0 100 57.5 179t158.5 125t231 46q41 0 86.5 -5t91.5 -13q-33 163 -237 163q-121 0 -243 -91l-99 243q104 50 205 74t192 24q145 0 251.5 -54.5t165.5 -154t59 -233.5v-578h-242l-19 107q-56 -59 -136.5 -93t-176.5 -34q-152 0 -248.5 82t-96.5 213zM386 341
q0 -50 38.5 -80.5t101.5 -30.5q86 0 144.5 52t58.5 128v20q-37 12 -79.5 19t-83.5 7q-85 0 -132.5 -30t-47.5 -85zM163 1130l229 370h333l229 -370h-250l-145 188l-146 -188h-250z" />
    <glyph glyph-name="atilde" unicode="&#xe3;" horiz-adv-x="1127" 
d="M98 275q0 100 57.5 179t158.5 125t231 46q41 0 86.5 -5t91.5 -13q-33 163 -237 163q-121 0 -243 -91l-99 243q104 50 205 74t192 24q145 0 251.5 -54.5t165.5 -154t59 -233.5v-578h-242l-19 107q-56 -59 -136.5 -93t-176.5 -34q-152 0 -248.5 82t-96.5 213zM386 341
q0 -50 38.5 -80.5t101.5 -30.5q86 0 144.5 52t58.5 128v20q-37 12 -79.5 19t-83.5 7q-85 0 -132.5 -30t-47.5 -85zM376 1520q68 0 116.5 -25t87 -57.5t75.5 -57.5t83 -25q98 0 104 126h128q0 -82 -20.5 -156t-72 -120.5t-144.5 -46.5q-70 0 -117.5 25t-83.5 57.5t-71 57.5
t-82 25q-100 0 -106 -127h-128q0 80 19.5 154t70 122t141.5 48z" />
    <glyph glyph-name="adieresis" unicode="&#xe4;" horiz-adv-x="1127" 
d="M98 275q0 100 57.5 179t158.5 125t231 46q41 0 86.5 -5t91.5 -13q-33 163 -237 163q-121 0 -243 -91l-99 243q104 50 205 74t192 24q145 0 251.5 -54.5t165.5 -154t59 -233.5v-578h-242l-19 107q-56 -59 -136.5 -93t-176.5 -34q-152 0 -248.5 82t-96.5 213zM386 341
q0 -50 38.5 -80.5t101.5 -30.5q86 0 144.5 52t58.5 128v20q-37 12 -79.5 19t-83.5 7q-85 0 -132.5 -30t-47.5 -85zM204 1330q0 63 38.5 101.5t101.5 38.5t101.5 -38.5t38.5 -101.5t-38.5 -101.5t-101.5 -38.5t-101.5 38.5t-38.5 101.5zM613 1330q0 63 38.5 101.5t101.5 38.5
t101.5 -38.5t38.5 -101.5t-38.5 -101.5t-101.5 -38.5t-101.5 38.5t-38.5 101.5z" />
    <glyph glyph-name="aring" unicode="&#xe5;" horiz-adv-x="1127" 
d="M98 275q0 100 57.5 179t158.5 125t231 46q41 0 86.5 -5t91.5 -13q-33 163 -237 163q-121 0 -243 -91l-99 243q104 50 205 74t192 24q145 0 251.5 -54.5t165.5 -154t59 -233.5v-578h-242l-19 107q-56 -59 -136.5 -93t-176.5 -34q-152 0 -248.5 82t-96.5 213zM386 341
q0 -50 38.5 -80.5t101.5 -30.5q86 0 144.5 52t58.5 128v20q-37 12 -79.5 19t-83.5 7q-85 0 -132.5 -30t-47.5 -85zM283 1369q0 119 78 197t197 78t197 -78t78 -197t-78 -197t-197 -78t-197 78t-78 197zM440 1369q0 -55 33.5 -91.5t84.5 -36.5t84.5 36.5t33.5 91.5
q0 56 -33.5 92.5t-84.5 36.5t-84.5 -36.5t-33.5 -92.5z" />
    <glyph glyph-name="ae" unicode="&#xe6;" horiz-adv-x="1853" 
d="M1793 414h-780q27 -83 99.5 -135t169.5 -52q104 0 172.5 33.5t124.5 86.5l174 -208q-116 -91 -230.5 -125t-221.5 -34q-162 0 -290.5 61t-205.5 166q-48 -103 -148.5 -165t-231.5 -62q-152 0 -248.5 82t-96.5 213q0 100 57.5 179t158.5 125t231 46q41 0 86.5 -5t91.5 -13
q-33 163 -237 163q-121 0 -243 -91l-99 243q104 50 205 74t192 24q122 0 206.5 -39.5t135.5 -111.5q74 71 175.5 111t219.5 40q155 0 275.5 -67t189 -184t68.5 -268v-87zM1007 574h490q-21 88 -86 142t-156 54q-92 0 -159.5 -55t-88.5 -141zM711 410v20q-37 12 -79.5 19
t-83.5 7q-85 0 -132.5 -30t-47.5 -85q0 -50 38.5 -80.5t101.5 -30.5q86 0 144.5 52t58.5 128z" />
    <glyph glyph-name="ccedilla" unicode="&#xe7;" horiz-adv-x="1067" 
d="M1007 128q-73 -70 -174.5 -109t-220.5 -39q-159 0 -283.5 67.5t-196.5 185t-72 267.5t72 267.5t196.5 185t283.5 67.5q119 0 220.5 -39t174.5 -109l-203 -191q-72 89 -192 89q-110 0 -182 -77t-72 -193t72 -193t182 -77q120 0 192 89zM377 -332q51 -24 98 -24
q41 0 68.5 17t27.5 46q0 30 -33.5 54.5t-107.5 24.5l13 33h-1l68 181h175l-68 -126q67 -22 97.5 -65.5t30.5 -98.5q0 -91 -70 -149t-179 -58q-105 0 -179 42z" />
    <glyph glyph-name="egrave" unicode="&#xe8;" horiz-adv-x="1171" 
d="M331 414q27 -83 99.5 -135t169.5 -52q104 0 172.5 33.5t124.5 86.5l174 -208q-116 -91 -229.5 -125t-217.5 -34q-166 0 -293 67.5t-199 186t-72 269.5q0 149 69 265.5t188.5 184t271.5 67.5q151 0 268.5 -67t185.5 -184t68 -268v-87h-780zM815 574q-21 88 -86 142
t-156 54q-92 0 -159.5 -55t-88.5 -141h490zM485 1130l-286 370h327l229 -370h-270z" />
    <glyph glyph-name="eacute" unicode="&#xe9;" horiz-adv-x="1171" 
d="M331 414q27 -83 99.5 -135t169.5 -52q104 0 172.5 33.5t124.5 86.5l174 -208q-116 -91 -229.5 -125t-217.5 -34q-166 0 -293 67.5t-199 186t-72 269.5q0 149 69 265.5t188.5 184t271.5 67.5q151 0 268.5 -67t185.5 -184t68 -268v-87h-780zM815 574q-21 88 -86 142
t-156 54q-92 0 -159.5 -55t-88.5 -141h490zM705 1130h-270l229 370h327z" />
    <glyph glyph-name="ecircumflex" unicode="&#xea;" horiz-adv-x="1171" 
d="M331 414q27 -83 99.5 -135t169.5 -52q104 0 172.5 33.5t124.5 86.5l174 -208q-116 -91 -229.5 -125t-217.5 -34q-166 0 -293 67.5t-199 186t-72 269.5q0 149 69 265.5t188.5 184t271.5 67.5q151 0 268.5 -67t185.5 -184t68 -268v-87h-780zM815 574q-21 88 -86 142
t-156 54q-92 0 -159.5 -55t-88.5 -141h490zM195 1130l229 370h333l229 -370h-250l-145 188l-146 -188h-250z" />
    <glyph glyph-name="edieresis" unicode="&#xeb;" horiz-adv-x="1171" 
d="M331 414q27 -83 99.5 -135t169.5 -52q104 0 172.5 33.5t124.5 86.5l174 -208q-116 -91 -229.5 -125t-217.5 -34q-166 0 -293 67.5t-199 186t-72 269.5q0 149 69 265.5t188.5 184t271.5 67.5q151 0 268.5 -67t185.5 -184t68 -268v-87h-780zM815 574q-21 88 -86 142
t-156 54q-92 0 -159.5 -55t-88.5 -141h490zM236 1330q0 63 38.5 101.5t101.5 38.5t101.5 -38.5t38.5 -101.5t-38.5 -101.5t-101.5 -38.5t-101.5 38.5t-38.5 101.5zM645 1330q0 63 38.5 101.5t101.5 38.5t101.5 -38.5t38.5 -101.5t-38.5 -101.5t-101.5 -38.5t-101.5 38.5
t-38.5 101.5z" />
    <glyph glyph-name="igrave" unicode="&#xec;" horiz-adv-x="548" 
d="M130 0v1000h288v-1000h-288zM148 1130l-286 370h327l229 -370h-270z" />
    <glyph glyph-name="iacute" unicode="&#xed;" horiz-adv-x="548" 
d="M130 0v1000h288v-1000h-288zM400 1130h-270l229 370h327z" />
    <glyph glyph-name="icircumflex" unicode="&#xee;" horiz-adv-x="548" 
d="M130 0v1000h288v-1000h-288zM-121 1130l229 370h333l229 -370h-250l-145 188l-146 -188h-250z" />
    <glyph glyph-name="idieresis" unicode="&#xef;" horiz-adv-x="548" 
d="M130 0v1000h288v-1000h-288zM-70 1330q0 63 38.5 101.5t101.5 38.5t101.5 -38.5t38.5 -101.5t-38.5 -101.5t-101.5 -38.5t-101.5 38.5t-38.5 101.5zM339 1330q0 63 38.5 101.5t101.5 38.5t101.5 -38.5t38.5 -101.5t-38.5 -101.5t-101.5 -38.5t-101.5 38.5t-38.5 101.5z
" />
    <glyph glyph-name="eth" unicode="&#xf0;" horiz-adv-x="1263" 
d="M90 468q0 138 63 248.5t170.5 175t240.5 64.5q84 0 157 -28t122 -79q-15 55 -64 136.5t-133 164.5l-277 -124l-48 110l230 98q-97 81 -175 121l123 186q154 -80 284 -204l201 87l48 -110l-161 -70q134 -157 208 -346t74 -371q0 -171 -64 -296t-181.5 -193t-279.5 -68
q-157 0 -278 64t-190.5 176.5t-69.5 257.5zM623 720q-97 0 -160 -67t-63 -171q0 -105 64 -173.5t161 -68.5q98 0 161.5 68t63.5 172t-64.5 172t-162.5 68z" />
    <glyph glyph-name="ntilde" unicode="&#xf1;" horiz-adv-x="1210" 
d="M130 0v1000h252l12 -122q59 68 141.5 105t181.5 37q175 0 279 -115.5t104 -321.5v-583h-289v527q0 243 -182 243q-94 0 -152.5 -69t-58.5 -194v-507h-288zM433 1520q68 0 116.5 -25t87 -57.5t75.5 -57.5t83 -25q98 0 104 126h128q0 -82 -20.5 -156t-72 -120.5
t-144.5 -46.5q-70 0 -117.5 25t-83.5 57.5t-71 57.5t-82 25q-100 0 -106 -127h-128q0 80 19.5 154t70 122t141.5 48z" />
    <glyph glyph-name="ograve" unicode="&#xf2;" horiz-adv-x="1187" 
d="M60 500q0 150 69.5 267.5t190 185t274.5 67.5t274 -67.5t189.5 -185t69.5 -267.5t-69.5 -267.5t-189.5 -185t-274 -67.5t-274.5 67.5t-190 185t-69.5 267.5zM340 500q0 -116 72 -193t182 -77t182 77t72 193t-72 193t-182 77t-182 -77t-72 -193zM482 1130l-286 370h327
l229 -370h-270z" />
    <glyph glyph-name="oacute" unicode="&#xf3;" horiz-adv-x="1187" 
d="M60 500q0 150 69.5 267.5t190 185t274.5 67.5t274 -67.5t189.5 -185t69.5 -267.5t-69.5 -267.5t-189.5 -185t-274 -67.5t-274.5 67.5t-190 185t-69.5 267.5zM340 500q0 -116 72 -193t182 -77t182 77t72 193t-72 193t-182 77t-182 -77t-72 -193zM706 1130h-270l229 370
h327z" />
    <glyph glyph-name="ocircumflex" unicode="&#xf4;" horiz-adv-x="1187" 
d="M60 500q0 150 69.5 267.5t190 185t274.5 67.5t274 -67.5t189.5 -185t69.5 -267.5t-69.5 -267.5t-189.5 -185t-274 -67.5t-274.5 67.5t-190 185t-69.5 267.5zM340 500q0 -116 72 -193t182 -77t182 77t72 193t-72 193t-182 77t-182 -77t-72 -193zM198 1130l229 370h333
l229 -370h-250l-145 188l-146 -188h-250z" />
    <glyph glyph-name="otilde" unicode="&#xf5;" horiz-adv-x="1187" 
d="M60 500q0 150 69.5 267.5t190 185t274.5 67.5t274 -67.5t189.5 -185t69.5 -267.5t-69.5 -267.5t-189.5 -185t-274 -67.5t-274.5 67.5t-190 185t-69.5 267.5zM340 500q0 -116 72 -193t182 -77t182 77t72 193t-72 193t-182 77t-182 -77t-72 -193zM412 1520q68 0 116.5 -25
t87 -57.5t75.5 -57.5t83 -25q98 0 104 126h128q0 -82 -20.5 -156t-72 -120.5t-144.5 -46.5q-70 0 -117.5 25t-83.5 57.5t-71 57.5t-82 25q-100 0 -106 -127h-128q0 80 19.5 154t70 122t141.5 48z" />
    <glyph glyph-name="odieresis" unicode="&#xf6;" horiz-adv-x="1187" 
d="M60 500q0 150 69.5 267.5t190 185t274.5 67.5t274 -67.5t189.5 -185t69.5 -267.5t-69.5 -267.5t-189.5 -185t-274 -67.5t-274.5 67.5t-190 185t-69.5 267.5zM340 500q0 -116 72 -193t182 -77t182 77t72 193t-72 193t-182 77t-182 -77t-72 -193zM249 1330q0 63 38.5 101.5
t101.5 38.5t101.5 -38.5t38.5 -101.5t-38.5 -101.5t-101.5 -38.5t-101.5 38.5t-38.5 101.5zM658 1330q0 63 38.5 101.5t101.5 38.5t101.5 -38.5t38.5 -101.5t-38.5 -101.5t-101.5 -38.5t-101.5 38.5t-38.5 101.5z" />
    <glyph glyph-name="divide" unicode="&#xf7;" horiz-adv-x="1166" 
d="M423 820q0 72 44 116t116 44t116 -44t44 -116t-44 -116t-116 -44t-116 44t-44 116zM423 140q0 72 44 116t116 44t116 -44t44 -116t-44 -116t-116 -44t-116 44t-44 116zM130 591h906v-222h-906v222z" />
    <glyph glyph-name="oslash" unicode="&#xf8;" horiz-adv-x="1224" 
d="M612 1020q30 0 59 -2.5t57 -7.5l48 115l161 -66l-44 -106q125 -64 198 -183t73 -270q0 -150 -71.5 -267.5t-196.5 -185t-284 -67.5q-31 0 -60 3t-57 7l-48 -115l-160 67l43 105q-124 65 -197 183.5t-73 269.5q0 150 72 267.5t196.5 185t283.5 67.5zM629 769q-6 1 -17 1
q-110 0 -182 -77t-72 -193q0 -61 20.5 -111.5t56.5 -87.5zM612 230q110 0 182 77t72 193q0 123 -78 199l-194 -468q6 -1 18 -1z" />
    <glyph glyph-name="ugrave" unicode="&#xf9;" 
d="M110 999h289v-536q0 -112 47 -173t135 -61q94 0 152.5 66t58.5 169h1v536h288v-1000h-252l-12 123q-59 -68 -141 -105.5t-180 -37.5q-190 0 -288 123t-98 362v534zM484 1130l-286 370h327l229 -370h-270z" />
    <glyph glyph-name="uacute" unicode="&#xfa;" 
d="M110 999h289v-536q0 -112 47 -173t135 -61q94 0 152.5 66t58.5 169h1v536h288v-1000h-252l-12 123q-59 -68 -141 -105.5t-180 -37.5q-190 0 -288 123t-98 362v534zM708 1130h-270l229 370h327z" />
    <glyph glyph-name="ucircumflex" unicode="&#xfb;" 
d="M110 999h289v-536q0 -112 47 -173t135 -61q94 0 152.5 66t58.5 169h1v536h288v-1000h-252l-12 123q-59 -68 -141 -105.5t-180 -37.5q-190 0 -288 123t-98 362v534zM200 1130l229 370h333l229 -370h-250l-145 188l-146 -188h-250z" />
    <glyph glyph-name="udieresis" unicode="&#xfc;" 
d="M110 999h289v-536q0 -112 47 -173t135 -61q94 0 152.5 66t58.5 169h1v536h288v-1000h-252l-12 123q-59 -68 -141 -105.5t-180 -37.5q-190 0 -288 123t-98 362v534zM251 1330q0 63 38.5 101.5t101.5 38.5t101.5 -38.5t38.5 -101.5t-38.5 -101.5t-101.5 -38.5t-101.5 38.5
t-38.5 101.5zM660 1330q0 63 38.5 101.5t101.5 38.5t101.5 -38.5t38.5 -101.5t-38.5 -101.5t-101.5 -38.5t-101.5 38.5t-38.5 101.5z" />
    <glyph glyph-name="yacute" unicode="&#xfd;" horiz-adv-x="1223" 
d="M361 1000l234 -489q16 -32 30 -73t24 -90l270 652h304l-622 -1500h-303l228 550l-466 950h301zM754 1130h-270l229 370h327z" />
    <glyph glyph-name="thorn" unicode="&#xfe;" horiz-adv-x="1287" 
d="M130 -500v2000h288v-565q62 48 139 74t165 26q146 0 260 -69.5t179.5 -190t65.5 -275.5q0 -154 -65.5 -275t-179.5 -190.5t-260 -69.5q-88 0 -165 26t-139 74v-565h-288zM418 500q0 -124 72.5 -204.5t182.5 -80.5t182.5 80.5t72.5 204.5t-72.5 204.5t-182.5 80.5
t-182.5 -80.5t-72.5 -204.5z" />
    <glyph glyph-name="ydieresis" unicode="&#xff;" horiz-adv-x="1223" 
d="M361 1000l234 -489q16 -32 30 -73t24 -90l270 652h304l-622 -1500h-303l228 550l-466 950h301zM298 1330q0 63 38.5 101.5t101.5 38.5t101.5 -38.5t38.5 -101.5t-38.5 -101.5t-101.5 -38.5t-101.5 38.5t-38.5 101.5zM707 1330q0 63 38.5 101.5t101.5 38.5t101.5 -38.5
t38.5 -101.5t-38.5 -101.5t-101.5 -38.5t-101.5 38.5t-38.5 101.5z" />
    <glyph glyph-name="Amacron" unicode="&#x100;" horiz-adv-x="1513" 
d="M0 0l585 1500h343l585 -1500h-327l-126 336h-607l-126 -336h-327zM960 606q-60 176 -107 315t-96 287q-49 -148 -96.5 -287t-107.5 -315h407zM408 1911h698v-205h-698v205z" />
    <glyph glyph-name="amacron" unicode="&#x101;" horiz-adv-x="1127" 
d="M98 275q0 100 57.5 179t158.5 125t231 46q41 0 86.5 -5t91.5 -13q-33 163 -237 163q-121 0 -243 -91l-99 243q104 50 205 74t192 24q145 0 251.5 -54.5t165.5 -154t59 -233.5v-578h-242l-19 107q-56 -59 -136.5 -93t-176.5 -34q-152 0 -248.5 82t-96.5 213zM386 341
q0 -50 38.5 -80.5t101.5 -30.5q86 0 144.5 52t58.5 128v20q-37 12 -79.5 19t-83.5 7q-85 0 -132.5 -30t-47.5 -85zM209 1411h698v-205h-698v205z" />
    <glyph glyph-name="Abreve" unicode="&#x102;" horiz-adv-x="1513" 
d="M0 0l585 1500h343l585 -1500h-327l-126 336h-607l-126 -336h-327zM960 606q-60 176 -107 315t-96 287q-49 -148 -96.5 -287t-107.5 -315h407zM433 2000h183q0 -64 40 -105.5t101 -41.5q60 0 100 41.5t40 105.5h183q0 -94 -42 -168.5t-115 -118t-166 -43.5t-166.5 43.5
t-115.5 118t-42 168.5z" />
    <glyph glyph-name="abreve" unicode="&#x103;" horiz-adv-x="1127" 
d="M98 275q0 100 57.5 179t158.5 125t231 46q41 0 86.5 -5t91.5 -13q-33 163 -237 163q-121 0 -243 -91l-99 243q104 50 205 74t192 24q145 0 251.5 -54.5t165.5 -154t59 -233.5v-578h-242l-19 107q-56 -59 -136.5 -93t-176.5 -34q-152 0 -248.5 82t-96.5 213zM386 341
q0 -50 38.5 -80.5t101.5 -30.5q86 0 144.5 52t58.5 128v20q-37 12 -79.5 19t-83.5 7q-85 0 -132.5 -30t-47.5 -85zM234 1500h183q0 -64 40 -105.5t101 -41.5q60 0 100 41.5t40 105.5h183q0 -94 -42 -168.5t-115 -118t-166 -43.5t-166.5 43.5t-115.5 118t-42 168.5z" />
    <glyph glyph-name="Aogonek" unicode="&#x104;" horiz-adv-x="1513" 
d="M0 0l585 1500h343l585 -1500h-327l-126 336h-607l-126 -336h-327zM960 606q-60 176 -107 315t-96 287q-49 -148 -96.5 -287t-107.5 -315h407zM1281 -427q-115 0 -189.5 55t-74.5 137q0 68 53.5 143t144.5 103h198q-37 -8 -77.5 -40.5t-68 -75.5t-27.5 -85q0 -39 31.5 -69
t107.5 -41z" />
    <glyph glyph-name="aogonek" unicode="&#x105;" horiz-adv-x="1127" 
d="M98 275q0 100 57.5 179t158.5 125t231 46q41 0 86.5 -5t91.5 -13q-33 163 -237 163q-121 0 -243 -91l-99 243q104 50 205 74t192 24q145 0 251.5 -54.5t165.5 -154t59 -233.5v-578h-242l-19 107q-56 -59 -136.5 -93t-176.5 -34q-152 0 -248.5 82t-96.5 213zM386 341
q0 -50 38.5 -80.5t101.5 -30.5q86 0 144.5 52t58.5 128v20q-37 12 -79.5 19t-83.5 7q-85 0 -132.5 -30t-47.5 -85zM870 -427q-115 0 -189.5 55t-74.5 137q0 68 53.5 143t144.5 103h198q-37 -8 -77.5 -40.5t-68 -75.5t-27.5 -85q0 -39 31.5 -69t107.5 -41z" />
    <glyph glyph-name="Cacute" unicode="&#x106;" horiz-adv-x="1459" 
d="M1389 191q-104 -103 -247 -162t-312 -59t-311.5 58t-247.5 163t-163 247.5t-58 311.5t58 311.5t163 247.5t247.5 163t311.5 58t312 -58.5t247 -162.5l-209 -209q-63 75 -153 117.5t-197 42.5q-136 0 -242 -66t-167 -181.5t-61 -262.5t61 -262t167 -181.5t242 -66.5
q107 0 197 42.5t153 117.5zM942 1630h-270l229 370h327z" />
    <glyph glyph-name="cacute" unicode="&#x107;" horiz-adv-x="1067" 
d="M1007 128q-73 -70 -174.5 -109t-220.5 -39q-159 0 -283.5 67.5t-196.5 185t-72 267.5t72 267.5t196.5 185t283.5 67.5q119 0 220.5 -39t174.5 -109l-203 -191q-72 89 -192 89q-110 0 -182 -77t-72 -193t72 -193t182 -77q120 0 192 89zM727 1130h-270l229 370h327z" />
    <glyph glyph-name="Ccircumflex" unicode="&#x108;" horiz-adv-x="1459" 
d="M1389 191q-104 -103 -247 -162t-312 -59t-311.5 58t-247.5 163t-163 247.5t-58 311.5t58 311.5t163 247.5t247.5 163t311.5 58t312 -58.5t247 -162.5l-209 -209q-63 75 -153 117.5t-197 42.5q-136 0 -242 -66t-167 -181.5t-61 -262.5t61 -262t167 -181.5t242 -66.5
q107 0 197 42.5t153 117.5zM424 1630l229 370h333l229 -370h-250l-145 188l-146 -188h-250z" />
    <glyph glyph-name="ccircumflex" unicode="&#x109;" horiz-adv-x="1067" 
d="M1007 128q-73 -70 -174.5 -109t-220.5 -39q-159 0 -283.5 67.5t-196.5 185t-72 267.5t72 267.5t196.5 185t283.5 67.5q119 0 220.5 -39t174.5 -109l-203 -191q-72 89 -192 89q-110 0 -182 -77t-72 -193t72 -193t182 -77q120 0 192 89zM214 1130l229 370h333l229 -370
h-250l-145 188l-146 -188h-250z" />
    <glyph glyph-name="Cdotaccent" unicode="&#x10a;" horiz-adv-x="1459" 
d="M1389 191q-104 -103 -247 -162t-312 -59t-311.5 58t-247.5 163t-163 247.5t-58 311.5t58 311.5t163 247.5t247.5 163t311.5 58t312 -58.5t247 -162.5l-209 -209q-63 75 -153 117.5t-197 42.5q-136 0 -242 -66t-167 -181.5t-61 -262.5t61 -262t167 -181.5t242 -66.5
q107 0 197 42.5t153 117.5zM659 1895q0 72 44 116t116 44t116 -44t44 -116t-44 -116t-116 -44t-116 44t-44 116z" />
    <glyph glyph-name="cdotaccent" unicode="&#x10b;" horiz-adv-x="1067" 
d="M1007 128q-73 -70 -174.5 -109t-220.5 -39q-159 0 -283.5 67.5t-196.5 185t-72 267.5t72 267.5t196.5 185t283.5 67.5q119 0 220.5 -39t174.5 -109l-203 -191q-72 89 -192 89q-110 0 -182 -77t-72 -193t72 -193t182 -77q120 0 192 89zM449 1310q0 72 44 116t116 44
t116 -44t44 -116t-44 -116t-116 -44t-116 44t-44 116z" />
    <glyph glyph-name="Ccaron" unicode="&#x10c;" horiz-adv-x="1459" 
d="M1389 191q-104 -103 -247 -162t-312 -59t-311.5 58t-247.5 163t-163 247.5t-58 311.5t58 311.5t163 247.5t247.5 163t311.5 58t312 -58.5t247 -162.5l-209 -209q-63 75 -153 117.5t-197 42.5q-136 0 -242 -66t-167 -181.5t-61 -262.5t61 -262t167 -181.5t242 -66.5
q107 0 197 42.5t153 117.5zM424 2000h250l146 -188l145 188h250l-229 -370h-333z" />
    <glyph glyph-name="ccaron" unicode="&#x10d;" horiz-adv-x="1067" 
d="M1007 128q-73 -70 -174.5 -109t-220.5 -39q-159 0 -283.5 67.5t-196.5 185t-72 267.5t72 267.5t196.5 185t283.5 67.5q119 0 220.5 -39t174.5 -109l-203 -191q-72 89 -192 89q-110 0 -182 -77t-72 -193t72 -193t182 -77q120 0 192 89zM214 1500h250l146 -188l145 188h250
l-229 -370h-333z" />
    <glyph glyph-name="Dcaron" unicode="&#x10e;" horiz-adv-x="1568" 
d="M602 -2h-472v1500h472q442 0 679 -195.5t237 -552.5q0 -358 -237 -555t-679 -197zM609 268q290 0 444.5 126.5t154.5 355.5q0 228 -154.5 353t-444.5 125h-173v-960h173zM379 2000h250l146 -188l145 188h250l-229 -370h-333z" />
    <glyph glyph-name="dcaron" unicode="&#x10f;" horiz-adv-x="1650" 
d="M130 500q0 150 63 267.5t173.5 185t250.5 67.5q94 0 175 -31.5t144 -87.5v599h288v-1500h-272l-7 108q-63 -61 -146.5 -94.5t-181.5 -33.5q-140 0 -250.5 67.5t-173.5 185t-63 267.5zM428 500q0 -116 72 -193t182 -77t182 77t72 193t-72 193t-182 77t-182 -77t-72 -193z
M1475 1500h265l-170 -499h-207z" />
    <glyph glyph-name="Dcroat" unicode="&#x110;" horiz-adv-x="1633" 
d="M637 -2h-472v1500h472q442 0 679 -195.5t237 -552.5q0 -358 -237 -555t-679 -197zM644 268q290 0 444.5 126.5t154.5 355.5q0 228 -154.5 353t-444.5 125h-173v-960h173zM0 623v204h800v-204h-800z" />
    <glyph glyph-name="dcroat" unicode="&#x111;" horiz-adv-x="1298" 
d="M547 -20q-140 0 -250.5 67.5t-173.5 185t-63 267.5t63 267.5t173.5 185t250.5 67.5q94 0 175 -31.5t144 -87.5v249h-288v160h288v190h288v-190h124v-160h-124v-1150h-272l-7 108q-63 -61 -146.5 -94.5t-181.5 -33.5zM612 770q-110 0 -182 -77t-72 -193t72 -193t182 -77
t182 77t72 193t-72 193t-182 77z" />
    <glyph glyph-name="Emacron" unicode="&#x112;" horiz-adv-x="1174" 
d="M130 1500h894v-270h-618v-324h578v-270h-578v-366h648v-270h-924v1500zM243 1911h698v-205h-698v205z" />
    <glyph glyph-name="emacron" unicode="&#x113;" horiz-adv-x="1171" 
d="M331 414q27 -83 99.5 -135t169.5 -52q104 0 172.5 33.5t124.5 86.5l174 -208q-116 -91 -229.5 -125t-217.5 -34q-166 0 -293 67.5t-199 186t-72 269.5q0 149 69 265.5t188.5 184t271.5 67.5q151 0 268.5 -67t185.5 -184t68 -268v-87h-780zM815 574q-21 88 -86 142
t-156 54q-92 0 -159.5 -55t-88.5 -141h490zM237 1411h698v-205h-698v205z" />
    <glyph glyph-name="Ebreve" unicode="&#x114;" horiz-adv-x="1174" 
d="M130 1500h894v-270h-618v-324h578v-270h-578v-366h648v-270h-924v1500zM268 2000h183q0 -64 40 -105.5t101 -41.5q60 0 100 41.5t40 105.5h183q0 -94 -42 -168.5t-115 -118t-166 -43.5t-166.5 43.5t-115.5 118t-42 168.5z" />
    <glyph glyph-name="ebreve" unicode="&#x115;" horiz-adv-x="1171" 
d="M331 414q27 -83 99.5 -135t169.5 -52q104 0 172.5 33.5t124.5 86.5l174 -208q-116 -91 -229.5 -125t-217.5 -34q-166 0 -293 67.5t-199 186t-72 269.5q0 149 69 265.5t188.5 184t271.5 67.5q151 0 268.5 -67t185.5 -184t68 -268v-87h-780zM815 574q-21 88 -86 142
t-156 54q-92 0 -159.5 -55t-88.5 -141h490zM262 1500h183q0 -64 40 -105.5t101 -41.5q60 0 100 41.5t40 105.5h183q0 -94 -42 -168.5t-115 -118t-166 -43.5t-166.5 43.5t-115.5 118t-42 168.5z" />
    <glyph glyph-name="Edotaccent" unicode="&#x116;" horiz-adv-x="1174" 
d="M130 1500h894v-270h-618v-324h578v-270h-578v-366h648v-270h-924v1500zM432 1895q0 72 44 116t116 44t116 -44t44 -116t-44 -116t-116 -44t-116 44t-44 116z" />
    <glyph glyph-name="edotaccent" unicode="&#x117;" horiz-adv-x="1171" 
d="M331 414q27 -83 99.5 -135t169.5 -52q104 0 172.5 33.5t124.5 86.5l174 -208q-116 -91 -229.5 -125t-217.5 -34q-166 0 -293 67.5t-199 186t-72 269.5q0 149 69 265.5t188.5 184t271.5 67.5q151 0 268.5 -67t185.5 -184t68 -268v-87h-780zM815 574q-21 88 -86 142
t-156 54q-92 0 -159.5 -55t-88.5 -141h490zM426 1310q0 72 44 116t116 44t116 -44t44 -116t-44 -116t-116 -44t-116 44t-44 116z" />
    <glyph glyph-name="Eogonek" unicode="&#x118;" horiz-adv-x="1174" 
d="M130 1500h894v-270h-618v-324h578v-270h-578v-366h648v-270h-924v1500zM915 -427q-115 0 -189.5 55t-74.5 137q0 68 53.5 143t144.5 103h198q-37 -8 -77.5 -40.5t-68 -75.5t-27.5 -85q0 -39 31.5 -69t107.5 -41z" />
    <glyph glyph-name="eogonek" unicode="&#x119;" horiz-adv-x="1171" 
d="M331 414q27 -83 99.5 -135t169.5 -52q104 0 172.5 33.5t124.5 86.5l174 -208q-116 -91 -229.5 -125t-217.5 -34q-166 0 -293 67.5t-199 186t-72 269.5q0 149 69 265.5t188.5 184t271.5 67.5q151 0 268.5 -67t185.5 -184t68 -268v-87h-780zM815 574q-21 88 -86 142
t-156 54q-92 0 -159.5 -55t-88.5 -141h490zM619 -447q-115 0 -189.5 55t-74.5 137q0 68 53.5 143t144.5 103h198q-37 -8 -77.5 -40.5t-68 -75.5t-27.5 -85q0 -39 31.5 -69t107.5 -41z" />
    <glyph glyph-name="Ecaron" unicode="&#x11a;" horiz-adv-x="1174" 
d="M130 1500h894v-270h-618v-324h578v-270h-578v-366h648v-270h-924v1500zM196 2000h250l146 -188l145 188h250l-229 -370h-333z" />
    <glyph glyph-name="ecaron" unicode="&#x11b;" horiz-adv-x="1171" 
d="M331 414q27 -83 99.5 -135t169.5 -52q104 0 172.5 33.5t124.5 86.5l174 -208q-116 -91 -229.5 -125t-217.5 -34q-166 0 -293 67.5t-199 186t-72 269.5q0 149 69 265.5t188.5 184t271.5 67.5q151 0 268.5 -67t185.5 -184t68 -268v-87h-780zM815 574q-21 88 -86 142
t-156 54q-92 0 -159.5 -55t-88.5 -141h490zM190 1500h250l146 -188l145 188h250l-229 -370h-333z" />
    <glyph glyph-name="Gcircumflex" unicode="&#x11c;" horiz-adv-x="1603" 
d="M830 1530q164 0 308 -57t251 -164l-229 -200q-60 72 -147.5 111.5t-194.5 39.5q-137 0 -240.5 -63.5t-160.5 -178.5t-57 -268t57 -267.5t160.5 -178.5t240.5 -64q168 0 284.5 94.5t156.5 254.5h-443v270h722l8 -55q3 -27 5 -55t2 -59q0 -156 -54 -287.5t-152.5 -228.5
t-232 -150.5t-292.5 -53.5q-166 0 -307 58.5t-245.5 163.5t-162 247.5t-57.5 310.5q0 169 58 311.5t163 247.5t247.5 163t311.5 58zM406 1630l229 370h333l229 -370h-250l-145 188l-146 -188h-250z" />
    <glyph glyph-name="gcircumflex" unicode="&#x11d;" horiz-adv-x="1284" 
d="M547 1020q98 0 181.5 -33.5t146.5 -94.5l7 108h272v-883q0 -192 -72.5 -335t-203 -222.5t-306.5 -79.5q-97 0 -206 27t-223 84l87 239q50 -42 140 -71.5t173 -29.5q149 0 236 99.5t87 268.5v2q-63 -56 -144 -87.5t-175 -31.5q-140 0 -250.5 67.5t-173.5 185t-63 267.5
t63 267.5t173.5 185t250.5 67.5zM612 230q110 0 182 77t72 193t-72 193t-182 77t-182 -77t-72 -193t72 -193t182 -77zM216 1130l229 370h333l229 -370h-250l-145 188l-146 -188h-250z" />
    <glyph glyph-name="Gbreve" unicode="&#x11e;" horiz-adv-x="1603" 
d="M830 1530q164 0 308 -57t251 -164l-229 -200q-60 72 -147.5 111.5t-194.5 39.5q-137 0 -240.5 -63.5t-160.5 -178.5t-57 -268t57 -267.5t160.5 -178.5t240.5 -64q168 0 284.5 94.5t156.5 254.5h-443v270h722l8 -55q3 -27 5 -55t2 -59q0 -156 -54 -287.5t-152.5 -228.5
t-232 -150.5t-292.5 -53.5q-166 0 -307 58.5t-245.5 163.5t-162 247.5t-57.5 310.5q0 169 58 311.5t163 247.5t247.5 163t311.5 58zM478 2000h183q0 -64 40 -105.5t101 -41.5q60 0 100 41.5t40 105.5h183q0 -94 -42 -168.5t-115 -118t-166 -43.5t-166.5 43.5t-115.5 118
t-42 168.5z" />
    <glyph glyph-name="gbreve" unicode="&#x11f;" horiz-adv-x="1284" 
d="M547 1020q98 0 181.5 -33.5t146.5 -94.5l7 108h272v-883q0 -192 -72.5 -335t-203 -222.5t-306.5 -79.5q-97 0 -206 27t-223 84l87 239q50 -42 140 -71.5t173 -29.5q149 0 236 99.5t87 268.5v2q-63 -56 -144 -87.5t-175 -31.5q-140 0 -250.5 67.5t-173.5 185t-63 267.5
t63 267.5t173.5 185t250.5 67.5zM612 230q110 0 182 77t72 193t-72 193t-182 77t-182 -77t-72 -193t72 -193t182 -77zM288 1500h183q0 -64 40 -105.5t101 -41.5q60 0 100 41.5t40 105.5h183q0 -94 -42 -168.5t-115 -118t-166 -43.5t-166.5 43.5t-115.5 118t-42 168.5z" />
    <glyph glyph-name="Gdotaccent" unicode="&#x120;" horiz-adv-x="1603" 
d="M830 1530q164 0 308 -57t251 -164l-229 -200q-60 72 -147.5 111.5t-194.5 39.5q-137 0 -240.5 -63.5t-160.5 -178.5t-57 -268t57 -267.5t160.5 -178.5t240.5 -64q168 0 284.5 94.5t156.5 254.5h-443v270h722l8 -55q3 -27 5 -55t2 -59q0 -156 -54 -287.5t-152.5 -228.5
t-232 -150.5t-292.5 -53.5q-166 0 -307 58.5t-245.5 163.5t-162 247.5t-57.5 310.5q0 169 58 311.5t163 247.5t247.5 163t311.5 58zM642 1895q0 72 44 116t116 44t116 -44t44 -116t-44 -116t-116 -44t-116 44t-44 116z" />
    <glyph glyph-name="gdotaccent" unicode="&#x121;" horiz-adv-x="1284" 
d="M547 1020q98 0 181.5 -33.5t146.5 -94.5l7 108h272v-883q0 -192 -72.5 -335t-203 -222.5t-306.5 -79.5q-97 0 -206 27t-223 84l87 239q50 -42 140 -71.5t173 -29.5q149 0 236 99.5t87 268.5v2q-63 -56 -144 -87.5t-175 -31.5q-140 0 -250.5 67.5t-173.5 185t-63 267.5
t63 267.5t173.5 185t250.5 67.5zM612 230q110 0 182 77t72 193t-72 193t-182 77t-182 -77t-72 -193t72 -193t182 -77zM452 1310q0 72 44 116t116 44t116 -44t44 -116t-44 -116t-116 -44t-116 44t-44 116z" />
    <glyph glyph-name="uni0122" unicode="&#x122;" horiz-adv-x="1603" 
d="M830 1530q164 0 308 -57t251 -164l-229 -200q-60 72 -147.5 111.5t-194.5 39.5q-137 0 -240.5 -63.5t-160.5 -178.5t-57 -268t57 -267.5t160.5 -178.5t240.5 -64q168 0 284.5 94.5t156.5 254.5h-443v270h722l8 -55q3 -27 5 -55t2 -59q0 -156 -54 -287.5t-152.5 -228.5
t-232 -150.5t-292.5 -53.5q-166 0 -307 58.5t-245.5 163.5t-162 247.5t-57.5 310.5q0 169 58 311.5t163 247.5t247.5 163t311.5 58zM940 -46q27 -76 27 -155q0 -113 -53.5 -210.5t-148.5 -147.5l-128 111q40 34 60 84.5t20 105.5q0 90 -49 157z" />
    <glyph glyph-name="uni0123" unicode="&#x123;" horiz-adv-x="1284" 
d="M547 1020q98 0 181.5 -33.5t146.5 -94.5l7 108h272v-883q0 -192 -72.5 -335t-203 -222.5t-306.5 -79.5q-97 0 -206 27t-223 84l87 239q50 -42 140 -71.5t173 -29.5q149 0 236 99.5t87 268.5v2q-63 -56 -144 -87.5t-175 -31.5q-140 0 -250.5 67.5t-173.5 185t-63 267.5
t63 267.5t173.5 185t250.5 67.5zM612 230q110 0 182 77t72 193t-72 193t-182 77t-182 -77t-72 -193t72 -193t182 -77zM728 1121h-265l170 499h207z" />
    <glyph glyph-name="Hcircumflex" unicode="&#x124;" horiz-adv-x="1529" 
d="M130 1500h306v-625h657v625h306v-1500h-306v605h-657v-605h-306v1500zM369 1630l229 370h333l229 -370h-250l-145 188l-146 -188h-250z" />
    <glyph glyph-name="hcircumflex" unicode="&#x125;" horiz-adv-x="1210" 
d="M130 0v1500h288v-597q119 117 296 117q386 0 386 -486v-534h-288v536q0 113 -47.5 173.5t-135.5 60.5q-94 0 -152.5 -65.5t-58.5 -169.5v-535h-288zM-122 1630l229 370h333l229 -370h-250l-145 188l-146 -188h-250z" />
    <glyph glyph-name="Hbar" unicode="&#x126;" horiz-adv-x="1529" 
d="M130 1500h306v-625h657v625h306v-1500h-306v605h-657v-605h-306v1500zM415 1911h698v-205h-698v205z" />
    <glyph glyph-name="hbar" unicode="&#x127;" horiz-adv-x="1210" 
d="M130 0v1500h288v-597q119 117 296 117q386 0 386 -486v-534h-288v536q0 113 -47.5 173.5t-135.5 60.5q-94 0 -152.5 -65.5t-58.5 -169.5v-535h-288zM-75 1911h698v-205h-698v205z" />
    <glyph glyph-name="Itilde" unicode="&#x128;" horiz-adv-x="566" 
d="M437 1500v-1500h-306v1500h306zM102 2020q68 0 116.5 -25t87 -57.5t75.5 -57.5t83 -25q98 0 104 126h128q0 -82 -20.5 -156t-72 -120.5t-144.5 -46.5q-70 0 -117.5 25t-83.5 57.5t-71 57.5t-82 25q-100 0 -106 -127h-128q0 80 19.5 154t70 122t141.5 48z" />
    <glyph glyph-name="itilde" unicode="&#x129;" horiz-adv-x="548" 
d="M130 0v1000h288v-1000h-288zM93 1520q68 0 116.5 -25t87 -57.5t75.5 -57.5t83 -25q98 0 104 126h128q0 -82 -20.5 -156t-72 -120.5t-144.5 -46.5q-70 0 -117.5 25t-83.5 57.5t-71 57.5t-82 25q-100 0 -106 -127h-128q0 80 19.5 154t70 122t141.5 48z" />
    <glyph glyph-name="Imacron" unicode="&#x12a;" horiz-adv-x="566" 
d="M437 1500v-1500h-306v1500h306zM-65 1911h698v-205h-698v205z" />
    <glyph glyph-name="imacron" unicode="&#x12b;" horiz-adv-x="548" 
d="M130 0v1000h288v-1000h-288zM-75 1411h698v-205h-698v205z" />
    <glyph glyph-name="Iogonek" unicode="&#x12e;" horiz-adv-x="566" 
d="M436 1500v-1500h-306v1500h306zM292 -427q-115 0 -189.5 55t-74.5 137q0 68 53.5 143t144.5 103h198q-37 -8 -77.5 -40.5t-68 -75.5t-27.5 -85q0 -39 31.5 -69t107.5 -41z" />
    <glyph glyph-name="iogonek" unicode="&#x12f;" horiz-adv-x="580" 
d="M130 1340q0 72 44 116t116 44t116 -44t44 -116t-44 -116t-116 -44t-116 44t-44 116zM146 0v1000h288v-1000h-288zM298 -427q-115 0 -189.5 55t-74.5 137q0 68 53.5 143t144.5 103h198q-37 -8 -77.5 -40.5t-68 -75.5t-27.5 -85q0 -39 31.5 -69t107.5 -41z" />
    <glyph glyph-name="Idotaccent" unicode="&#x130;" horiz-adv-x="502" 
d="M404 1500v-1500h-306v1500h306zM91 1895q0 72 44 116t116 44t116 -44t44 -116t-44 -116t-116 -44t-116 44t-44 116z" />
    <glyph glyph-name="dotlessi" unicode="&#x131;" horiz-adv-x="548" 
d="M130 0v1000h288v-1000h-288z" />
    <glyph glyph-name="IJ" unicode="&#x132;" horiz-adv-x="1152" 
d="M436 1500v-1500h-306v1500h306zM441 -360l-20 260q295 0 295 251v1349h306v-1330q0 -274 -140.5 -402t-440.5 -128z" />
    <glyph glyph-name="ij" unicode="&#x133;" horiz-adv-x="1077" 
d="M98 1340q0 72 44 116t116 44t116 -44t44 -116t-44 -116t-116 -44t-116 44t-44 116zM114 0v1000h288v-1000h-288zM659 1340q0 72 44 116t116 44t116 -44t44 -116t-44 -116t-116 -44t-116 44t-44 116zM675 -118v1118h288v-1151q0 -178 -95 -273.5t-274 -95.5q-92 0 -187 37
v236q55 -23 107 -23q70 0 115.5 40.5t45.5 111.5z" />
    <glyph glyph-name="Jcircumflex" unicode="&#x134;" horiz-adv-x="586" 
d="M-125 -360l-20 260q295 0 295 251v1349h306v-1330q0 -274 -140.5 -402t-440.5 -128zM-92 1576l229 370h333l229 -370h-250l-145 188l-146 -188h-250z" />
    <glyph glyph-name="jcircumflex" unicode="&#x135;" horiz-adv-x="513" 
d="M127 -118v1118h288v-1151q0 -178 -95 -273.5t-274 -95.5q-92 0 -187 37v236q55 -23 107 -23q70 0 115.5 40.5t45.5 111.5zM-124 1130l229 370h333l229 -370h-250l-145 188l-146 -188h-250z" />
    <glyph glyph-name="uni0136" unicode="&#x136;" horiz-adv-x="370" 
d="M323 -46q27 -76 27 -155q0 -113 -53.5 -210.5t-148.5 -147.5l-128 111q40 34 60 84.5t20 105.5q0 90 -49 157z" />
    <glyph glyph-name="uni0137" unicode="&#x137;" horiz-adv-x="1154" 
d="M130 0v1500h288v-910q30 47 66 91.5t79 94.5l194 224h315l-384 -449l456 -551h-353l-286 338l-87 -102v-236h-288zM715 -46q27 -76 27 -155q0 -113 -53.5 -210.5t-148.5 -147.5l-128 111q40 34 60 84.5t20 105.5q0 90 -49 157z" />
    <glyph glyph-name="kgreenlandic" unicode="&#x138;" horiz-adv-x="1154" 
d="M130 0v1000h288v-410q30 47 66 91.5t79 94.5l194 224h315l-384 -449l456 -551h-353l-286 338l-87 -102v-236h-288z" />
    <glyph glyph-name="Lacute" unicode="&#x139;" horiz-adv-x="1154" 
d="M1074 0h-944v1500h306v-1230h638v-270zM385 1630h-270l229 370h327z" />
    <glyph glyph-name="lacute" unicode="&#x13a;" horiz-adv-x="548" 
d="M418 1540v-1540h-288v1540h288zM409 1630h-270l229 370h327z" />
    <glyph glyph-name="uni013B" unicode="&#x13b;" horiz-adv-x="1154" 
d="M1074 0h-944v1500h306v-1230h638v-270zM715 -46q27 -76 27 -155q0 -113 -53.5 -210.5t-148.5 -147.5l-128 111q40 34 60 84.5t20 105.5q0 90 -49 157z" />
    <glyph glyph-name="uni013C" unicode="&#x13c;" horiz-adv-x="548" 
d="M418 1540v-1540h-288v1540h288zM412 -46q27 -76 27 -155q0 -113 -53.5 -210.5t-148.5 -147.5l-128 111q40 34 60 84.5t20 105.5q0 90 -49 157z" />
    <glyph glyph-name="Lcaron" unicode="&#x13d;" horiz-adv-x="1154" 
d="M1074 0h-944v1500h306v-1230h638v-270zM809 1500h265l-170 -499h-207z" />
    <glyph glyph-name="lcaron" unicode="&#x13e;" horiz-adv-x="1076" 
d="M418 1540v-1540h-288v1540h288zM791 1500h265l-170 -499h-207z" />
    <glyph glyph-name="Ldot" unicode="&#x13f;" horiz-adv-x="1154" 
d="M1074 0h-944v1500h306v-1230h638v-270zM642 750q0 72 44 116t116 44t116 -44t44 -116t-44 -116t-116 -44t-116 44t-44 116z" />
    <glyph glyph-name="ldot" unicode="&#x140;" horiz-adv-x="923" 
d="M418 1540v-1540h-288v1540h288zM543 770q0 72 44 116t116 44t116 -44t44 -116t-44 -116t-116 -44t-116 44t-44 116z" />
    <glyph glyph-name="Lslash" unicode="&#x141;" horiz-adv-x="1226" 
d="M0 605l202 117v778h306v-602l242 140l82 -142l-324 -187v-439h638v-270h-944v532l-119 -69z" />
    <glyph glyph-name="lslash" unicode="&#x142;" horiz-adv-x="812" 
d="M-10 625l272 157v758h288v-592l190 110l82 -142l-272 -157v-759h-288v592l-189 -109z" />
    <glyph glyph-name="Nacute" unicode="&#x143;" horiz-adv-x="1640" 
d="M130 1500h304l770 -1008v1008h306v-1500h-309l-771 1010v-1010h-300v1500zM912 1630h-270l229 370h327z" />
    <glyph glyph-name="nacute" unicode="&#x144;" horiz-adv-x="1210" 
d="M130 0v1000h252l12 -122q59 68 141.5 105t181.5 37q175 0 279 -115.5t104 -321.5v-583h-289v527q0 243 -182 243q-94 0 -152.5 -69t-58.5 -194v-507h-288zM707 1130h-270l229 370h327z" />
    <glyph glyph-name="uni0145" unicode="&#x145;" horiz-adv-x="1640" 
d="M130 1500h304l770 -1008v1008h306v-1500h-309l-771 1010v-1010h-300v1500zM958 -46q27 -76 27 -155q0 -113 -53.5 -210.5t-148.5 -147.5l-128 111q40 34 60 84.5t20 105.5q0 90 -49 157z" />
    <glyph glyph-name="uni0146" unicode="&#x146;" horiz-adv-x="1210" 
d="M130 0v1000h252l12 -122q59 68 141.5 105t181.5 37q175 0 279 -115.5t104 -321.5v-583h-289v527q0 243 -182 243q-94 0 -152.5 -69t-58.5 -194v-507h-288zM753 -46q27 -76 27 -155q0 -113 -53.5 -210.5t-148.5 -147.5l-128 111q40 34 60 84.5t20 105.5q0 90 -49 157z" />
    <glyph glyph-name="Ncaron" unicode="&#x147;" horiz-adv-x="1640" 
d="M130 1500h304l770 -1008v1008h306v-1500h-309l-771 1010v-1010h-300v1500zM425 2000h250l146 -188l145 188h250l-229 -370h-333z" />
    <glyph glyph-name="ncaron" unicode="&#x148;" horiz-adv-x="1210" 
d="M130 0v1000h252l12 -122q59 68 141.5 105t181.5 37q175 0 279 -115.5t104 -321.5v-583h-289v527q0 243 -182 243q-94 0 -152.5 -69t-58.5 -194v-507h-288zM220 1500h250l146 -188l145 188h250l-229 -370h-333z" />
    <glyph glyph-name="napostrophe" unicode="&#x149;" horiz-adv-x="1210" 
d="M130 0v1000h252l12 -122q59 68 141.5 105t181.5 37q175 0 279 -115.5t104 -321.5v-583h-289v527q0 243 -182 243q-94 0 -152.5 -69t-58.5 -194v-507h-288zM433 1555q27 -76 27 -155q0 -113 -53.5 -210.5t-148.5 -147.5l-128 111q40 34 60 84.5t20 105.5q0 90 -49 157z
" />
    <glyph glyph-name="Omacron" unicode="&#x14c;" horiz-adv-x="1660" 
d="M50 750q0 169 58 311.5t163 247.5t247.5 163t311.5 58t311.5 -58t247.5 -163t163 -247.5t58 -311.5t-58 -311.5t-163 -247.5t-247.5 -163t-311.5 -58t-311.5 58t-247.5 163t-163 247.5t-58 311.5zM360 750q0 -147 61 -262t167 -181.5t242 -66.5t242 66.5t167 181.5
t61 262t-61 262.5t-167 181.5t-242 66t-242 -66t-167 -181.5t-61 -262.5zM481 1911h698v-205h-698v205z" />
    <glyph glyph-name="omacron" unicode="&#x14d;" horiz-adv-x="1187" 
d="M60 500q0 150 69.5 267.5t190 185t274.5 67.5t274 -67.5t189.5 -185t69.5 -267.5t-69.5 -267.5t-189.5 -185t-274 -67.5t-274.5 67.5t-190 185t-69.5 267.5zM340 500q0 -116 72 -193t182 -77t182 77t72 193t-72 193t-182 77t-182 -77t-72 -193zM245 1411h698v-205h-698
v205z" />
    <glyph glyph-name="Obreve" unicode="&#x14e;" horiz-adv-x="1660" 
d="M50 750q0 169 58 311.5t163 247.5t247.5 163t311.5 58t311.5 -58t247.5 -163t163 -247.5t58 -311.5t-58 -311.5t-163 -247.5t-247.5 -163t-311.5 -58t-311.5 58t-247.5 163t-163 247.5t-58 311.5zM360 750q0 -147 61 -262t167 -181.5t242 -66.5t242 66.5t167 181.5
t61 262t-61 262.5t-167 181.5t-242 66t-242 -66t-167 -181.5t-61 -262.5zM507 2000h183q0 -64 40 -105.5t101 -41.5q60 0 100 41.5t40 105.5h183q0 -94 -42 -168.5t-115 -118t-166 -43.5t-166.5 43.5t-115.5 118t-42 168.5z" />
    <glyph glyph-name="obreve" unicode="&#x14f;" horiz-adv-x="1187" 
d="M60 500q0 150 69.5 267.5t190 185t274.5 67.5t274 -67.5t189.5 -185t69.5 -267.5t-69.5 -267.5t-189.5 -185t-274 -67.5t-274.5 67.5t-190 185t-69.5 267.5zM340 500q0 -116 72 -193t182 -77t182 77t72 193t-72 193t-182 77t-182 -77t-72 -193zM270 1500h183
q0 -64 40 -105.5t101 -41.5q60 0 100 41.5t40 105.5h183q0 -94 -42 -168.5t-115 -118t-166 -43.5t-166.5 43.5t-115.5 118t-42 168.5z" />
    <glyph glyph-name="Ohungarumlaut" unicode="&#x150;" horiz-adv-x="1660" 
d="M50 750q0 169 58 311.5t163 247.5t247.5 163t311.5 58t311.5 -58t247.5 -163t163 -247.5t58 -311.5t-58 -311.5t-163 -247.5t-247.5 -163t-311.5 -58t-311.5 58t-247.5 163t-163 247.5t-58 311.5zM360 750q0 -147 61 -262t167 -181.5t242 -66.5t242 66.5t167 181.5
t61 262t-61 262.5t-167 181.5t-242 66t-242 -66t-167 -181.5t-61 -262.5zM1088 2000h265l-255 -330h-215zM713 2000h265l-255 -330h-215z" />
    <glyph glyph-name="ohungarumlaut" unicode="&#x151;" horiz-adv-x="1187" 
d="M60 500q0 150 69.5 267.5t190 185t274.5 67.5t274 -67.5t189.5 -185t69.5 -267.5t-69.5 -267.5t-189.5 -185t-274 -67.5t-274.5 67.5t-190 185t-69.5 267.5zM340 500q0 -116 72 -193t182 -77t182 77t72 193t-72 193t-182 77t-182 -77t-72 -193zM851 1500h265l-255 -330
h-215zM476 1500h265l-255 -330h-215z" />
    <glyph glyph-name="OE" unicode="&#x152;" horiz-adv-x="2321" 
d="M1277 1500h894v-270h-618v-324h578v-270h-575q-1 -11 -3 -21v-345h648v-270h-924v127q-95 -75 -214.5 -116t-256.5 -41q-163 0 -301.5 58t-240 163t-158 247.5t-56.5 311.5t56.5 311.5t158 247.5t240 163t301.5 58q137 0 256.5 -41t214.5 -116v127zM1277 750
q0 147 -61 262.5t-167 181.5t-242 66q-135 0 -241.5 -66t-167.5 -181.5t-61 -262.5t61 -262t167.5 -181.5t241.5 -66.5q136 0 242 66.5t167 181.5t61 262z" />
    <glyph glyph-name="oe" unicode="&#x153;" horiz-adv-x="2070" 
d="M60 500q0 150 69.5 267.5t190 185t274.5 67.5q146 0 262.5 -61.5t186.5 -166.5q69 105 185 166.5t260 61.5q151 0 268.5 -67t185.5 -184t68 -268v-87h-780q27 -83 99.5 -135t169.5 -52q104 0 172.5 33.5t124.5 86.5l174 -208q-116 -91 -229.5 -125t-217.5 -34
q-158 0 -282 62.5t-196 169.5q-69 -107 -186.5 -169.5t-264.5 -62.5q-154 0 -274.5 67.5t-190 185t-69.5 267.5zM1714 574q-21 88 -86 142t-156 54q-92 0 -159.5 -55t-88.5 -141h490zM340 500q0 -116 72 -193t182 -77t182 77t72 193t-72 193t-182 77t-182 -77t-72 -193z" />
    <glyph glyph-name="Racute" unicode="&#x154;" horiz-adv-x="1310" 
d="M130 1500h510q274 0 428 -124.5t154 -336.5q0 -151 -80.5 -260.5t-227.5 -161.5l356 -617h-343l-332 575h-159v-575h-306v1500zM604 829q151 0 229.5 56t78.5 153t-78.5 152t-229.5 55h-168v-416h168zM692 1630h-270l229 370h327z" />
    <glyph glyph-name="racute" unicode="&#x155;" horiz-adv-x="810" 
d="M130 0v1000h252l14 -143q109 163 300 163q65 0 134 -20l-40 -249q-58 19 -114 19q-116 0 -187 -85.5t-71 -243.5v-441h-288zM497 1130h-270l229 370h327z" />
    <glyph glyph-name="uni0156" unicode="&#x156;" horiz-adv-x="1310" 
d="M130 1500h510q274 0 428 -124.5t154 -336.5q0 -151 -80.5 -260.5t-227.5 -161.5l356 -617h-343l-332 575h-159v-575h-306v1500zM604 829q151 0 229.5 56t78.5 153t-78.5 152t-229.5 55h-168v-416h168zM838 -46q27 -76 27 -155q0 -113 -53.5 -210.5t-148.5 -147.5
l-128 111q40 34 60 84.5t20 105.5q0 90 -49 157z" />
    <glyph glyph-name="uni0157" unicode="&#x157;" horiz-adv-x="810" 
d="M130 0v1000h252l14 -143q109 163 300 163q65 0 134 -20l-40 -249q-58 19 -114 19q-116 0 -187 -85.5t-71 -243.5v-441h-288zM419 -46q27 -76 27 -155q0 -113 -53.5 -210.5t-148.5 -147.5l-128 111q40 34 60 84.5t20 105.5q0 90 -49 157z" />
    <glyph glyph-name="Rcaron" unicode="&#x158;" horiz-adv-x="1310" 
d="M130 1500h510q274 0 428 -124.5t154 -336.5q0 -151 -80.5 -260.5t-227.5 -161.5l356 -617h-343l-332 575h-159v-575h-306v1500zM604 829q151 0 229.5 56t78.5 153t-78.5 152t-229.5 55h-168v-416h168zM205 2000h250l146 -188l145 188h250l-229 -370h-333z" />
    <glyph glyph-name="rcaron" unicode="&#x159;" horiz-adv-x="810" 
d="M130 0v1000h252l14 -143q109 163 300 163q65 0 134 -20l-40 -249q-58 19 -114 19q-116 0 -187 -85.5t-71 -243.5v-441h-288zM13 1500h250l146 -188l145 188h250l-229 -370h-333z" />
    <glyph glyph-name="Sacute" unicode="&#x15a;" horiz-adv-x="1215" 
d="M598 240q92 0 154.5 51t62.5 126q0 60 -40.5 102t-106.5 75.5t-143 65.5q-76 32 -152.5 69.5t-140.5 88.5t-103 123t-39 173q0 125 63 218.5t177 145.5t265 52q241 0 462 -120l-126 -256q-98 62 -187 84t-148 22q-89 0 -142.5 -37.5t-53.5 -99.5q0 -53 38 -91t100.5 -68
t136.5 -61q77 -32 156 -70t146 -91t107.5 -128t40.5 -181q0 -135 -69 -239.5t-190 -164t-278 -59.5q-145 0 -291 51.5t-267 145.5l144 244q56 -49 129 -88t150.5 -61t144.5 -22zM670 1630h-270l229 370h327z" />
    <glyph glyph-name="sacute" unicode="&#x15b;" horiz-adv-x="962" 
d="M70 127l136 217q86 -57 158.5 -90.5t129.5 -33.5q44 0 71 20t27 51q0 45 -50.5 73t-116.5 55q-70 29 -140.5 65.5t-118 94.5t-47.5 150q0 127 100.5 209t284.5 82q90 0 189.5 -22.5t181.5 -72.5l-127 -219q-44 29 -114.5 51.5t-119.5 22.5q-28 0 -61.5 -11.5t-33.5 -44.5
q0 -37 46.5 -61t110.5 -49q69 -27 142 -63.5t123.5 -97t50.5 -158.5t-54 -169t-144 -108.5t-199 -37.5q-103 0 -213.5 36t-211.5 111zM573 1130h-270l229 370h327z" />
    <glyph glyph-name="Scircumflex" unicode="&#x15c;" horiz-adv-x="1215" 
d="M598 240q92 0 154.5 51t62.5 126q0 60 -40.5 102t-106.5 75.5t-143 65.5q-76 32 -152.5 69.5t-140.5 88.5t-103 123t-39 173q0 125 63 218.5t177 145.5t265 52q241 0 462 -120l-126 -256q-98 62 -187 84t-148 22q-89 0 -142.5 -37.5t-53.5 -99.5q0 -53 38 -91t100.5 -68
t136.5 -61q77 -32 156 -70t146 -91t107.5 -128t40.5 -181q0 -135 -69 -239.5t-190 -164t-278 -59.5q-145 0 -291 51.5t-267 145.5l144 244q56 -49 129 -88t150.5 -61t144.5 -22zM182 1630l229 370h333l229 -370h-250l-145 188l-146 -188h-250z" />
    <glyph glyph-name="scircumflex" unicode="&#x15d;" horiz-adv-x="962" 
d="M70 127l136 217q86 -57 158.5 -90.5t129.5 -33.5q44 0 71 20t27 51q0 45 -50.5 73t-116.5 55q-70 29 -140.5 65.5t-118 94.5t-47.5 150q0 127 100.5 209t284.5 82q90 0 189.5 -22.5t181.5 -72.5l-127 -219q-44 29 -114.5 51.5t-119.5 22.5q-28 0 -61.5 -11.5t-33.5 -44.5
q0 -37 46.5 -61t110.5 -49q69 -27 142 -63.5t123.5 -97t50.5 -158.5t-54 -169t-144 -108.5t-199 -37.5q-103 0 -213.5 36t-211.5 111zM86 1130l229 370h333l229 -370h-250l-145 188l-146 -188h-250z" />
    <glyph glyph-name="Scedilla" unicode="&#x15e;" horiz-adv-x="1215" 
d="M598 240q92 0 154.5 51t62.5 126q0 60 -40.5 102t-106.5 75.5t-143 65.5q-76 32 -152.5 69.5t-140.5 88.5t-103 123t-39 173q0 125 63 218.5t177 145.5t265 52q241 0 462 -120l-126 -256q-98 62 -187 84t-148 22q-89 0 -142.5 -37.5t-53.5 -99.5q0 -53 38 -91t100.5 -68
t136.5 -61q77 -32 156 -70t146 -91t107.5 -128t40.5 -181q0 -135 -69 -239.5t-190 -164t-278 -59.5q-145 0 -291 51.5t-267 145.5l144 244q56 -49 129 -88t150.5 -61t144.5 -22zM424 -332q51 -24 98 -24q41 0 68.5 17t27.5 46q0 30 -33.5 54.5t-107.5 24.5l13 33h-1l68 181
h175l-68 -126q67 -22 97.5 -65.5t30.5 -98.5q0 -91 -70 -149t-179 -58q-105 0 -179 42z" />
    <glyph glyph-name="scedilla" unicode="&#x15f;" horiz-adv-x="962" 
d="M70 127l136 217q86 -57 158.5 -90.5t129.5 -33.5q44 0 71 20t27 51q0 45 -50.5 73t-116.5 55q-70 29 -140.5 65.5t-118 94.5t-47.5 150q0 127 100.5 209t284.5 82q90 0 189.5 -22.5t181.5 -72.5l-127 -219q-44 29 -114.5 51.5t-119.5 22.5q-28 0 -61.5 -11.5t-33.5 -44.5
q0 -37 46.5 -61t110.5 -49q69 -27 142 -63.5t123.5 -97t50.5 -158.5t-54 -169t-144 -108.5t-199 -37.5q-103 0 -213.5 36t-211.5 111zM327 -278q51 -24 98 -24q41 0 68.5 17t27.5 46q0 30 -33.5 54.5t-107.5 24.5l13 33h-1l68 181h175l-68 -126q67 -22 97.5 -65.5
t30.5 -98.5q0 -91 -70 -149t-179 -58q-105 0 -179 42z" />
    <glyph glyph-name="Scaron" unicode="&#x160;" horiz-adv-x="1215" 
d="M598 240q92 0 154.5 51t62.5 126q0 60 -40.5 102t-106.5 75.5t-143 65.5q-76 32 -152.5 69.5t-140.5 88.5t-103 123t-39 173q0 125 63 218.5t177 145.5t265 52q241 0 462 -120l-126 -256q-98 62 -187 84t-148 22q-89 0 -142.5 -37.5t-53.5 -99.5q0 -53 38 -91t100.5 -68
t136.5 -61q77 -32 156 -70t146 -91t107.5 -128t40.5 -181q0 -135 -69 -239.5t-190 -164t-278 -59.5q-145 0 -291 51.5t-267 145.5l144 244q56 -49 129 -88t150.5 -61t144.5 -22zM182 2000h250l146 -188l145 188h250l-229 -370h-333z" />
    <glyph glyph-name="scaron" unicode="&#x161;" horiz-adv-x="962" 
d="M70 127l136 217q86 -57 158.5 -90.5t129.5 -33.5q44 0 71 20t27 51q0 45 -50.5 73t-116.5 55q-70 29 -140.5 65.5t-118 94.5t-47.5 150q0 127 100.5 209t284.5 82q90 0 189.5 -22.5t181.5 -72.5l-127 -219q-44 29 -114.5 51.5t-119.5 22.5q-28 0 -61.5 -11.5t-33.5 -44.5
q0 -37 46.5 -61t110.5 -49q69 -27 142 -63.5t123.5 -97t50.5 -158.5t-54 -169t-144 -108.5t-199 -37.5q-103 0 -213.5 36t-211.5 111zM86 1500h250l146 -188l145 188h250l-229 -370h-333z" />
    <glyph glyph-name="uni0162" unicode="&#x162;" horiz-adv-x="1184" 
d="M10 1230v270h1164v-270h-429v-1230h-306v1230h-429zM730 -46q27 -76 27 -155q0 -113 -53.5 -210.5t-148.5 -147.5l-128 111q40 34 60 84.5t20 105.5q0 90 -49 157z" />
    <glyph glyph-name="uni0163" unicode="&#x163;" horiz-adv-x="881" 
d="M70 1000h165v250h288v-250h243v-250h-243v-368q0 -71 45.5 -111.5t115.5 -40.5q52 0 107 23v-236q-95 -37 -187 -37q-178 0 -273.5 95.5t-95.5 273.5v401h-165v250zM569 -46q27 -76 27 -155q0 -113 -53.5 -210.5t-148.5 -147.5l-128 111q40 34 60 84.5t20 105.5
q0 90 -49 157z" />
    <glyph glyph-name="Tcaron" unicode="&#x164;" horiz-adv-x="1184" 
d="M10 1230v270h1164v-270h-429v-1230h-306v1230h-429zM197 2000h250l146 -188l145 188h250l-229 -370h-333z" />
    <glyph glyph-name="tcaron" unicode="&#x165;" horiz-adv-x="1098" 
d="M70 1000h165v250h288v-250h243v-250h-243v-368q0 -71 45.5 -111.5t115.5 -40.5q52 0 107 23v-236q-95 -37 -187 -37q-178 0 -273.5 95.5t-95.5 273.5v401h-165v250zM923 1520h265l-170 -499h-207z" />
    <glyph glyph-name="Tbar" unicode="&#x166;" horiz-adv-x="1184" 
d="M149 670v160h290v400h-429v270h1164v-270h-429v-400h290v-160h-290v-670h-306v670h-290z" />
    <glyph glyph-name="tbar" unicode="&#x167;" horiz-adv-x="881" 
d="M70 1000h165v250h288v-250h243v-250h-243v-170h211v-120h-211v-78q0 -71 45.5 -111.5t115.5 -40.5q52 0 107 23v-236q-95 -37 -187 -37q-178 0 -273.5 95.5t-95.5 273.5v111h-135v120h135v170h-165v250z" />
    <glyph glyph-name="Utilde" unicode="&#x168;" horiz-adv-x="1544" 
d="M436 1500v-840q0 -190 92 -305t244 -115t244 115t92 305v840h306v-840q0 -208 -80 -363t-224 -241t-338 -86q-193 0 -337.5 86t-224.5 241t-80 363v840h306zM591 2020q68 0 116.5 -25t87 -57.5t75.5 -57.5t83 -25q98 0 104 126h128q0 -82 -20.5 -156t-72 -120.5
t-144.5 -46.5q-70 0 -117.5 25t-83.5 57.5t-71 57.5t-82 25q-100 0 -106 -127h-128q0 80 19.5 154t70 122t141.5 48z" />
    <glyph glyph-name="utilde" unicode="&#x169;" 
d="M110 999h289v-536q0 -112 47 -173t135 -61q94 0 152.5 66t58.5 169h1v536h288v-1000h-252l-12 123q-59 -68 -141 -105.5t-180 -37.5q-190 0 -288 123t-98 362v534zM414 1520q68 0 116.5 -25t87 -57.5t75.5 -57.5t83 -25q98 0 104 126h128q0 -82 -20.5 -156t-72 -120.5
t-144.5 -46.5q-70 0 -117.5 25t-83.5 57.5t-71 57.5t-82 25q-100 0 -106 -127h-128q0 80 19.5 154t70 122t141.5 48z" />
    <glyph glyph-name="Umacron" unicode="&#x16a;" horiz-adv-x="1544" 
d="M436 1500v-840q0 -190 92 -305t244 -115t244 115t92 305v840h306v-840q0 -208 -80 -363t-224 -241t-338 -86q-193 0 -337.5 86t-224.5 241t-80 363v840h306zM423 1911h698v-205h-698v205z" />
    <glyph glyph-name="umacron" unicode="&#x16b;" 
d="M110 999h289v-536q0 -112 47 -173t135 -61q94 0 152.5 66t58.5 169h1v536h288v-1000h-252l-12 123q-59 -68 -141 -105.5t-180 -37.5q-190 0 -288 123t-98 362v534zM247 1411h698v-205h-698v205z" />
    <glyph glyph-name="Ubreve" unicode="&#x16c;" horiz-adv-x="1544" 
d="M436 1500v-840q0 -190 92 -305t244 -115t244 115t92 305v840h306v-840q0 -208 -80 -363t-224 -241t-338 -86q-193 0 -337.5 86t-224.5 241t-80 363v840h306zM449 2000h183q0 -64 40 -105.5t101 -41.5q60 0 100 41.5t40 105.5h183q0 -94 -42 -168.5t-115 -118t-166 -43.5
t-166.5 43.5t-115.5 118t-42 168.5z" />
    <glyph glyph-name="ubreve" unicode="&#x16d;" 
d="M110 999h289v-536q0 -112 47 -173t135 -61q94 0 152.5 66t58.5 169h1v536h288v-1000h-252l-12 123q-59 -68 -141 -105.5t-180 -37.5q-190 0 -288 123t-98 362v534zM272 1500h183q0 -64 40 -105.5t101 -41.5q60 0 100 41.5t40 105.5h183q0 -94 -42 -168.5t-115 -118
t-166 -43.5t-166.5 43.5t-115.5 118t-42 168.5z" />
    <glyph glyph-name="Uring" unicode="&#x16e;" horiz-adv-x="1544" 
d="M436 1500v-840q0 -190 92 -305t244 -115t244 115t92 305v840h306v-840q0 -208 -80 -363t-224 -241t-338 -86q-193 0 -337.5 86t-224.5 241t-80 363v840h306zM497 1765q0 119 78 197t197 78t197 -78t78 -197t-78 -197t-197 -78t-197 78t-78 197zM654 1765
q0 -55 33.5 -91.5t84.5 -36.5t84.5 36.5t33.5 91.5q0 56 -33.5 92.5t-84.5 36.5t-84.5 -36.5t-33.5 -92.5z" />
    <glyph glyph-name="uring" unicode="&#x16f;" 
d="M110 999h289v-536q0 -112 47 -173t135 -61q94 0 152.5 66t58.5 169h1v536h288v-1000h-252l-12 123q-59 -68 -141 -105.5t-180 -37.5q-190 0 -288 123t-98 362v534zM321 1371q0 119 78 197t197 78t197 -78t78 -197t-78 -197t-197 -78t-197 78t-78 197zM478 1371
q0 -55 33.5 -91.5t84.5 -36.5t84.5 36.5t33.5 91.5q0 56 -33.5 92.5t-84.5 36.5t-84.5 -36.5t-33.5 -92.5z" />
    <glyph glyph-name="Uhungarumlaut" unicode="&#x170;" horiz-adv-x="1544" 
d="M436 1500v-840q0 -190 92 -305t244 -115t244 115t92 305v840h306v-840q0 -208 -80 -363t-224 -241t-338 -86q-193 0 -337.5 86t-224.5 241t-80 363v840h306zM1030 2000h265l-255 -330h-215zM655 2000h265l-255 -330h-215z" />
    <glyph glyph-name="uhungarumlaut" unicode="&#x171;" 
d="M110 999h289v-536q0 -112 47 -173t135 -61q94 0 152.5 66t58.5 169h1v536h288v-1000h-252l-12 123q-59 -68 -141 -105.5t-180 -37.5q-190 0 -288 123t-98 362v534zM853 1500h265l-255 -330h-215zM478 1500h265l-255 -330h-215z" />
    <glyph glyph-name="Uogonek" unicode="&#x172;" horiz-adv-x="1544" 
d="M436 1500v-840q0 -190 92 -305t244 -115t244 115t92 305v840h306v-840q0 -208 -80 -363t-224 -241t-338 -86q-193 0 -337.5 86t-224.5 241t-80 363v840h306zM817 -447q-115 0 -189.5 55t-74.5 137q0 68 53.5 143t144.5 103h198q-37 -8 -77.5 -40.5t-68 -75.5t-27.5 -85
q0 -39 31.5 -69t107.5 -41z" />
    <glyph glyph-name="uogonek" unicode="&#x173;" 
d="M110 999h289v-536q0 -112 47 -173t135 -61q94 0 152.5 66t58.5 169h1v536h288v-1000h-252l-12 123q-59 -68 -141 -105.5t-180 -37.5q-190 0 -288 123t-98 362v534zM923 -427q-115 0 -189.5 55t-74.5 137q0 68 53.5 143t144.5 103h198q-37 -8 -77.5 -40.5t-68 -75.5
t-27.5 -85q0 -39 31.5 -69t107.5 -41z" />
    <glyph glyph-name="Wcircumflex" unicode="&#x174;" horiz-adv-x="2242" 
d="M480 0l-430 1500h313l251 -875q31 -105 55 -204l310 1079h316l293 -1022q9 35 19.5 71.5t21.5 76.5l250 874h313l-431 -1500h-313l-311 1085l-312 -1085h-345zM726 1630l229 370h333l229 -370h-250l-145 188l-146 -188h-250z" />
    <glyph glyph-name="wcircumflex" unicode="&#x175;" horiz-adv-x="1747" 
d="M30 1000h303l163 -519q12 -39 22.5 -74t19.5 -67q8 32 17.5 67t20.5 74l163 519h287l163 -519q12 -39 22.5 -74t19.5 -68q8 33 17.5 68t20.5 74l163 519h285l-335 -1000h-285q-58 176 -110.5 346t-98.5 343q-43 -175 -99 -347t-121 -342h-303zM478 1130l229 370h333
l229 -370h-250l-145 188l-146 -188h-250z" />
    <glyph glyph-name="Ycircumflex" unicode="&#x176;" horiz-adv-x="1392" 
d="M-10 1500h331l382 -626l364 626h335l-540 -913v-587h-306v587zM301 1630l229 370h333l229 -370h-250l-145 188l-146 -188h-250z" />
    <glyph glyph-name="ycircumflex" unicode="&#x177;" horiz-adv-x="1223" 
d="M361 1000l234 -489q16 -32 30 -73t24 -90l270 652h304l-622 -1500h-303l228 550l-466 950h301zM245 1130l229 370h333l229 -370h-250l-145 188l-146 -188h-250z" />
    <glyph glyph-name="Ydieresis" unicode="&#x178;" horiz-adv-x="1392" 
d="M-10 1500h331l382 -626l364 626h335l-540 -913v-587h-306v587zM352 1830q0 63 38.5 101.5t101.5 38.5t101.5 -38.5t38.5 -101.5t-38.5 -101.5t-101.5 -38.5t-101.5 38.5t-38.5 101.5zM761 1830q0 63 38.5 101.5t101.5 38.5t101.5 -38.5t38.5 -101.5t-38.5 -101.5
t-101.5 -38.5t-101.5 38.5t-38.5 101.5z" />
    <glyph glyph-name="Zacute" unicode="&#x179;" horiz-adv-x="1338" 
d="M50 215l777 1015h-710v270h1137v-216l-776 -1014h810v-270h-1238v215zM761 1630h-270l229 370h327z" />
    <glyph glyph-name="zacute" unicode="&#x17a;" horiz-adv-x="1162" 
d="M100 0v135l483 615h-455v250h911v-136l-482 -614h505v-250h-962zM673 1130h-270l229 370h327z" />
    <glyph glyph-name="Zdotaccent" unicode="&#x17b;" horiz-adv-x="1338" 
d="M50 215l777 1015h-710v270h1137v-216l-776 -1014h810v-270h-1238v215zM509 1895q0 72 44 116t116 44t116 -44t44 -116t-44 -116t-116 -44t-116 44t-44 116z" />
    <glyph glyph-name="zdotaccent" unicode="&#x17c;" horiz-adv-x="1162" 
d="M100 0v135l483 615h-455v250h911v-136l-482 -614h505v-250h-962zM421 1310q0 72 44 116t116 44t116 -44t44 -116t-44 -116t-116 -44t-116 44t-44 116z" />
    <glyph glyph-name="Zcaron" unicode="&#x17d;" horiz-adv-x="1338" 
d="M50 215l777 1015h-710v270h1137v-216l-776 -1014h810v-270h-1238v215zM304 2000h250l146 -188l145 188h250l-229 -370h-333z" />
    <glyph glyph-name="zcaron" unicode="&#x17e;" horiz-adv-x="1162" 
d="M100 0v135l483 615h-455v250h911v-136l-482 -614h505v-250h-962zM196 1500h250l146 -188l145 188h250l-229 -370h-333z" />
    <glyph glyph-name="longs" unicode="&#x17f;" horiz-adv-x="655" 
d="M598 1270q-86 0 -133 -55.5t-47 -138.5v-1076h-288v1038q0 156 62 263.5t171.5 163t251.5 55.5z" />
    <glyph glyph-name="florin" unicode="&#x192;" horiz-adv-x="1022" 
d="M62 142q53 -52 121 -52q58 0 103.5 40t49.5 111l36 519h-165l18 250h165l9 135q10 134 68 219t146 125.5t185 40.5q161 0 284 -100l-121 -202q-53 52 -121 52q-58 0 -103.5 -40t-50.5 -111l-8 -119h243l-18 -250h-243l-37 -535q-9 -134 -67.5 -219t-146 -125.5
t-185.5 -40.5q-160 0 -284 100z" />
    <glyph glyph-name="uni0218" unicode="&#x218;" horiz-adv-x="1215" 
d="M598 240q92 0 154.5 51t62.5 126q0 60 -40.5 102t-106.5 75.5t-143 65.5q-76 32 -152.5 69.5t-140.5 88.5t-103 123t-39 173q0 125 63 218.5t177 145.5t265 52q241 0 462 -120l-126 -256q-98 62 -187 84t-148 22q-89 0 -142.5 -37.5t-53.5 -99.5q0 -53 38 -91t100.5 -68
t136.5 -61q77 -32 156 -70t146 -91t107.5 -128t40.5 -181q0 -135 -69 -239.5t-190 -164t-278 -59.5q-145 0 -291 51.5t-267 145.5l144 244q56 -49 129 -88t150.5 -61t144.5 -22zM766 -46q27 -76 27 -155q0 -113 -53.5 -210.5t-148.5 -147.5l-128 111q40 34 60 84.5t20 105.5
q0 90 -49 157z" />
    <glyph glyph-name="uni0219" unicode="&#x219;" horiz-adv-x="962" 
d="M70 127l136 217q86 -57 158.5 -90.5t129.5 -33.5q44 0 71 20t27 51q0 45 -50.5 73t-116.5 55q-70 29 -140.5 65.5t-118 94.5t-47.5 150q0 127 100.5 209t284.5 82q90 0 189.5 -22.5t181.5 -72.5l-127 -219q-44 29 -114.5 51.5t-119.5 22.5q-28 0 -61.5 -11.5t-33.5 -44.5
q0 -37 46.5 -61t110.5 -49q69 -27 142 -63.5t123.5 -97t50.5 -158.5t-54 -169t-144 -108.5t-199 -37.5q-103 0 -213.5 36t-211.5 111zM649 -46q27 -76 27 -155q0 -113 -53.5 -210.5t-148.5 -147.5l-128 111q40 34 60 84.5t20 105.5q0 90 -49 157z" />
    <glyph glyph-name="uni021A" unicode="&#x21a;" horiz-adv-x="1184" 
d="M10 1230v270h1164v-270h-429v-1230h-306v1230h-429zM729 -46q27 -76 27 -155q0 -113 -53.5 -210.5t-148.5 -147.5l-128 111q40 34 60 84.5t20 105.5q0 90 -49 157z" />
    <glyph glyph-name="uni021B" unicode="&#x21b;" horiz-adv-x="881" 
d="M70 1000h165v250h288v-250h243v-250h-243v-368q0 -71 45.5 -111.5t115.5 -40.5q52 0 107 23v-236q-95 -37 -187 -37q-178 0 -273.5 95.5t-95.5 273.5v401h-165v250zM569 -46q27 -76 27 -155q0 -113 -53.5 -210.5t-148.5 -147.5l-128 111q40 34 60 84.5t20 105.5
q0 90 -49 157z" />
    <glyph glyph-name="uni0237" unicode="&#x237;" horiz-adv-x="497" 
d="M127 -118v1118h288v-1151q0 -178 -95 -273.5t-274 -95.5q-92 0 -187 37v236q55 -23 107 -23q70 0 115.5 40.5t45.5 111.5z" />
    <glyph glyph-name="circumflex" unicode="&#x2c6;" horiz-adv-x="1051" 
d="M130 1130l229 370h333l229 -370h-250l-145 188l-146 -188h-250z" />
    <glyph glyph-name="caron" unicode="&#x2c7;" horiz-adv-x="1051" 
d="M130 1500h250l146 -188l145 188h250l-229 -370h-333z" />
    <glyph glyph-name="uni02C9" unicode="&#x2c9;" horiz-adv-x="860" 
d="M130 1417h600v-120h-600v120z" />
    <glyph glyph-name="breve" unicode="&#x2d8;" horiz-adv-x="907" 
d="M130 1500h183q0 -64 40 -105.5t101 -41.5q60 0 100 41.5t40 105.5h183q0 -94 -42 -168.5t-115 -118t-166 -43.5t-166.5 43.5t-115.5 118t-42 168.5z" />
    <glyph glyph-name="dotaccent" unicode="&#x2d9;" horiz-adv-x="580" 
d="M130 1395q0 72 44 116t116 44t116 -44t44 -116t-44 -116t-116 -44t-116 44t-44 116z" />
    <glyph glyph-name="ring" unicode="&#x2da;" horiz-adv-x="810" 
d="M130 1265q0 119 78 197t197 78t197 -78t78 -197t-78 -197t-197 -78t-197 78t-78 197zM287 1265q0 -55 33.5 -91.5t84.5 -36.5t84.5 36.5t33.5 91.5q0 56 -33.5 92.5t-84.5 36.5t-84.5 -36.5t-33.5 -92.5z" />
    <glyph glyph-name="ogonek" unicode="&#x2db;" horiz-adv-x="688" 
d="M396 -437q-115 0 -189.5 55t-74.5 137q0 68 53.5 143t144.5 103h198q-37 -8 -77.5 -40.5t-68 -75.5t-27.5 -85q0 -39 31.5 -69t107.5 -41z" />
    <glyph glyph-name="tilde" unicode="&#x2dc;" horiz-adv-x="1085" 
d="M361 1520q68 0 116.5 -25t87 -57.5t75.5 -57.5t83 -25q98 0 104 126h128q0 -82 -20.5 -156t-72 -120.5t-144.5 -46.5q-70 0 -117.5 25t-83.5 57.5t-71 57.5t-82 25q-100 0 -106 -127h-128q0 80 19.5 154t70 122t141.5 48z" />
    <glyph glyph-name="hungarumlaut" unicode="&#x2dd;" horiz-adv-x="943" 
d="M630 1500h265l-255 -330h-215zM255 1500h265l-255 -330h-215z" />
    <glyph glyph-name="uni0394" unicode="&#x394;" horiz-adv-x="1559" 
d="M0 0l613 1500h333l613 -1500h-1559zM431 260h697l-348 852z" />
    <glyph glyph-name="uni03A9" unicode="&#x3a9;" horiz-adv-x="1718" 
d="M60 0v260h281q-127 116 -192 268.5t-65 306.5q0 150 58.5 276.5t163.5 220.5t246.5 146t306.5 52t306.5 -52t246.5 -146t163.5 -220.5t58.5 -276.5q0 -154 -65 -306.5t-192 -268.5h281v-260h-684v206q2 1 3 1t2 1q113 39 192 131.5t121 210t42 229.5q0 145 -61 255.5
t-168 173t-246 62.5q-138 0 -245.5 -62.5t-168.5 -173t-61 -255.5q0 -112 42 -229.5t121.5 -210t191.5 -131.5q2 -1 3 -1t2 -1v-206h-684z" />
    <glyph glyph-name="uni03BC" unicode="&#x3bc;" horiz-adv-x="1268" 
d="M400 1000v-536q0 -112 56.5 -173t144.5 -61q94 0 152.5 65.5t58.5 169.5v535h289v-675q0 -68 35 -105.5t102 -52.5l-27 -208q-247 0 -343 161q-43 -64 -108.5 -102t-158.5 -38q-53 0 -111 22t-90 60v-563h-234q-7 84 -15.5 149t-14.5 130t-6 149v1073h270z" />
    <glyph glyph-name="pi" unicode="&#x3c0;" horiz-adv-x="1329" 
d="M25 695l-65 221q124 84 265 84h1035v-240h-250v-455q0 -61 27 -97.5t71 -36.5q35 0 61.5 19t38.5 33l61 -74q-19 -74 -85 -121.5t-165 -47.5q-121 0 -204 85t-83 275v420h-189q3 -130 3 -260q0 -124 -3 -249t-10 -251h-278q7 126 10 251t3 249q0 130 -3 260h-40
q-104 0 -200 -65z" />
    <glyph glyph-name="Wgrave" unicode="&#x1e80;" horiz-adv-x="2242" 
d="M480 0l-430 1500h313l251 -875q31 -105 55 -204l310 1079h316l293 -1022q9 35 19.5 71.5t21.5 76.5l250 874h313l-431 -1500h-313l-311 1085l-312 -1085h-345zM989 1630l-286 370h327l229 -370h-270z" />
    <glyph glyph-name="wgrave" unicode="&#x1e81;" horiz-adv-x="1747" 
d="M30 1000h303l163 -519q12 -39 22.5 -74t19.5 -67q8 32 17.5 67t20.5 74l163 519h287l163 -519q12 -39 22.5 -74t19.5 -68q8 33 17.5 68t20.5 74l163 519h285l-335 -1000h-285q-58 176 -110.5 346t-98.5 343q-43 -175 -99 -347t-121 -342h-303zM732 1130l-286 370h327
l229 -370h-270z" />
    <glyph glyph-name="Wacute" unicode="&#x1e82;" horiz-adv-x="2242" 
d="M480 0l-430 1500h313l251 -875q31 -105 55 -204l310 1079h316l293 -1022q9 35 19.5 71.5t21.5 76.5l250 874h313l-431 -1500h-313l-311 1085l-312 -1085h-345zM1263 1630h-270l229 370h327z" />
    <glyph glyph-name="wacute" unicode="&#x1e83;" horiz-adv-x="1747" 
d="M30 1000h303l163 -519q12 -39 22.5 -74t19.5 -67q8 32 17.5 67t20.5 74l163 519h287l163 -519q12 -39 22.5 -74t19.5 -68q8 33 17.5 68t20.5 74l163 519h285l-335 -1000h-285q-58 176 -110.5 346t-98.5 343q-43 -175 -99 -347t-121 -342h-303zM1016 1130h-270l229 370
h327z" />
    <glyph glyph-name="Wdieresis" unicode="&#x1e84;" horiz-adv-x="2242" 
d="M480 0l-430 1500h313l251 -875q31 -105 55 -204l310 1079h316l293 -1022q9 35 19.5 71.5t21.5 76.5l250 874h313l-431 -1500h-313l-311 1085l-312 -1085h-345zM777 1830q0 63 38.5 101.5t101.5 38.5t101.5 -38.5t38.5 -101.5t-38.5 -101.5t-101.5 -38.5t-101.5 38.5
t-38.5 101.5zM1186 1830q0 63 38.5 101.5t101.5 38.5t101.5 -38.5t38.5 -101.5t-38.5 -101.5t-101.5 -38.5t-101.5 38.5t-38.5 101.5z" />
    <glyph glyph-name="wdieresis" unicode="&#x1e85;" horiz-adv-x="1747" 
d="M30 1000h303l163 -519q12 -39 22.5 -74t19.5 -67q8 32 17.5 67t20.5 74l163 519h287l163 -519q12 -39 22.5 -74t19.5 -68q8 33 17.5 68t20.5 74l163 519h285l-335 -1000h-285q-58 176 -110.5 346t-98.5 343q-43 -175 -99 -347t-121 -342h-303zM529 1330q0 63 38.5 101.5
t101.5 38.5t101.5 -38.5t38.5 -101.5t-38.5 -101.5t-101.5 -38.5t-101.5 38.5t-38.5 101.5zM938 1330q0 63 38.5 101.5t101.5 38.5t101.5 -38.5t38.5 -101.5t-38.5 -101.5t-101.5 -38.5t-101.5 38.5t-38.5 101.5z" />
    <glyph glyph-name="endash" unicode="&#x2013;" horiz-adv-x="1280" 
d="M130 645h1020v-205h-1020v205z" />
    <glyph glyph-name="emdash" unicode="&#x2014;" horiz-adv-x="2300" 
d="M130 645h2040v-205h-2040v205z" />
    <glyph glyph-name="quoteleft" unicode="&#x2018;" horiz-adv-x="637" 
d="M394 1021h-265l170 499h207z" />
    <glyph glyph-name="quoteright" unicode="&#x2019;" horiz-adv-x="637" 
d="M242 1520h265l-170 -499h-207z" />
    <glyph glyph-name="quotesinglbase" unicode="&#x201a;" horiz-adv-x="637" 
d="M242 225h265l-170 -499h-207z" />
    <glyph glyph-name="quotedblleft" unicode="&#x201c;" horiz-adv-x="1048" 
d="M395 1021h-265l170 499h207zM806 1021h-265l170 499h207z" />
    <glyph glyph-name="quotedblright" unicode="&#x201d;" horiz-adv-x="1048" 
d="M653 1520h265l-170 -499h-207zM242 1520h265l-170 -499h-207z" />
    <glyph glyph-name="quotedblbase" unicode="&#x201e;" horiz-adv-x="1058" 
d="M541 -274l112 499h275l-170 -499h-217zM242 225h275l-170 -499h-217z" />
    <glyph glyph-name="dagger" unicode="&#x2020;" horiz-adv-x="1040" 
d="M610 1070l310 30v-200l-310 30l30 -930h-240l30 930l-310 -30v200l310 -30l-30 430h240z" />
    <glyph glyph-name="daggerdbl" unicode="&#x2021;" horiz-adv-x="1060" 
d="M130 900v200l310 -30l-30 430h240l-30 -430l310 30v-200l-310 30q2 -52 4 -89.5t2 -90.5q0 -52 -2 -89.5t-4 -90.5l310 30v-200l-310 30l30 -430h-240l30 430l-310 -30v200l310 -30q-1 53 -3.5 90.5t-2.5 89.5q0 53 2.5 90.5t3.5 89.5z" />
    <glyph glyph-name="bullet" unicode="&#x2022;" horiz-adv-x="660" 
d="M130 700q0 86 57.5 143t142.5 57q87 0 143.5 -57t56.5 -143q0 -87 -56.5 -143.5t-143.5 -56.5q-85 0 -142.5 56.5t-57.5 143.5z" />
    <glyph glyph-name="ellipsis" unicode="&#x2026;" horiz-adv-x="1440" 
d="M130 140q0 72 44 116t116 44t116 -44t44 -116t-44 -116t-116 -44t-116 44t-44 116zM560 140q0 72 44 116t116 44t116 -44t44 -116t-44 -116t-116 -44t-116 44t-44 116zM990 140q0 72 44 116t116 44t116 -44t44 -116t-44 -116t-116 -44t-116 44t-44 116z" />
    <glyph glyph-name="perthousand" unicode="&#x2030;" horiz-adv-x="2763" 
d="M501 1510q106 0 179 -33.5t118 -87t65 -116t20 -121.5q0 -58 -20 -121t-65 -116.5t-118 -87t-179 -33.5q-141 0 -224.5 57t-120 140t-36.5 161t36.5 161t120 140t224.5 57zM1312 1502h273l-957 -1503h-272zM501 1004q59 0 92 43t33 105t-33 105t-92 43q-58 0 -91 -43
t-33 -105t33 -105t91 -43zM1438 706q106 0 179 -33.5t118 -87.5t65 -116.5t20 -120.5q0 -78 -37 -161t-120.5 -140t-224.5 -57t-224.5 57t-120 140t-36.5 161q0 58 20 120.5t64.5 116.5t117.5 87.5t179 33.5zM2261 706q106 0 179 -33.5t118 -87.5t65 -116.5t20 -120.5
q0 -78 -36.5 -161t-120.5 -140t-225 -57t-224.5 57t-120 140t-36.5 161q0 58 20 120.5t64.5 116.5t117.5 87.5t179 33.5zM1438 200q59 0 92 42.5t33 104.5q0 63 -33 106t-92 43t-91.5 -43t-32.5 -106q0 -62 32.5 -104.5t91.5 -42.5zM2261 200q59 0 92 42.5t33 104.5
q0 63 -33 106t-92 43t-91.5 -43t-32.5 -106q0 -62 32.5 -104.5t91.5 -42.5z" />
    <glyph glyph-name="guilsinglleft" unicode="&#x2039;" horiz-adv-x="835" 
d="M705 932l-362 -408l362 -408h-284l-351 408l351 408h284z" />
    <glyph glyph-name="guilsinglright" unicode="&#x203a;" horiz-adv-x="835" 
d="M130 932l362 -408l-362 -408h284l351 408l-351 408h-284z" />
    <glyph glyph-name="fraction" unicode="&#x2044;" horiz-adv-x="1177" 
d="M1013 1694l164 -94l-1013 -1755l-164 94z" />
    <glyph glyph-name="uni2074" unicode="&#x2074;" horiz-adv-x="840" 
d="M50 810v129l418 562h191v-518h111v-173h-111v-154h-186v154h-423zM473 983v183q0 46 6 94l-11 1q-10 -22 -25 -47.5t-32 -50.5l-126 -180h188z" />
    <glyph glyph-name="franc" unicode="&#x20a3;" horiz-adv-x="1202" 
d="M30 266v160h148v1074h924v-270h-618v-324h578v-270h-578v-210h322v-160h-322v-266h-306v266h-148z" />
    <glyph glyph-name="uni20A8" unicode="&#x20a8;" horiz-adv-x="1220" 
d="M130 1117h540q-20 89 -100 156t-219 67h-221v160h990v-160h-284q53 -46 86.5 -103.5t46.5 -119.5h151v-160h-151q-24 -115 -117.5 -209t-256.5 -120l362 -628h-343l-357 619h-127v150h221q125 0 202 55t106 133h-529v160z" />
    <glyph glyph-name="Euro" unicode="&#x20ac;" horiz-adv-x="1175" 
d="M80 680h141q-1 17 -1.5 34.5t-0.5 35.5t0.5 35.5t1.5 34.5h-141v160h164q62 267 270 408.5t541 141.5l-18 -250q-178 0 -301 -79t-178 -221h352v-160h-388q-3 -34 -3 -70q0 -35 3 -70h388v-160h-352q55 -142 178 -221t301 -79l18 -250q-333 0 -541 141.5t-270 408.5h-164
v160z" />
    <glyph glyph-name="uni2113" unicode="&#x2113;" horiz-adv-x="1100" 
d="M30 628q62 17 122 36t116 40v356q0 234 109 352t284 118q116 0 198.5 -47.5t126.5 -129t44 -184.5q0 -172 -124.5 -322.5t-357.5 -268.5v-116q0 -118 21 -185t87 -67q42 0 79 46.5t46 108.5l222 -65q-20 -157 -106 -243.5t-241 -86.5q-179 0 -283.5 118t-104.5 349v25
q-40 -14 -82.5 -27t-86.5 -25zM548 842q93 63 147.5 141t54.5 173q0 57 -22 95.5t-72 38.5q-55 0 -81.5 -50.5t-26.5 -140.5v-257z" />
    <glyph glyph-name="trademark" unicode="&#x2122;" horiz-adv-x="1710" 
d="M766 761v740h196l163 -349q12 -28 23 -57.5t21 -58.5q11 30 22.5 60t23.5 56l162 349h193v-740h-151q0 135 2.5 264t9.5 258q-13 -34 -27 -67.5t-29 -66.5l-124 -267h-166l-125 267q-15 37 -29 73l-28 72q6 -85 9 -165t4 -168.5t1 -199.5h-151zM100 1501h574v-133h-211
v-607h-151v607h-212v133z" />
    <glyph glyph-name="Omega" unicode="&#x2126;" horiz-adv-x="1718" 
d="M60 0v260h281q-127 116 -192 268.5t-65 306.5q0 150 58.5 276.5t163.5 220.5t246.5 146t306.5 52t306.5 -52t246.5 -146t163.5 -220.5t58.5 -276.5q0 -154 -65 -306.5t-192 -268.5h281v-260h-684v206q2 1 3 1t2 1q113 39 192 131.5t121 210t42 229.5q0 145 -61 255.5
t-168 173t-246 62.5q-138 0 -245.5 -62.5t-168.5 -173t-61 -255.5q0 -112 42 -229.5t121.5 -210t191.5 -131.5q2 -1 3 -1t2 -1v-206h-684z" />
    <glyph glyph-name="estimated" unicode="&#x212e;" horiz-adv-x="1142" 
d="M576 1020q148 0 262 -67t179 -184t65 -269v-36h-763v-169q0 -62 44.5 -111t118.5 -76.5t164 -27.5q80 0 169 28t180 103l49 -72q-109 -91 -217.5 -125t-209.5 -34q-162 0 -288 67.5t-197.5 186.5t-71.5 271q0 148 67 264.5t184 183.5t265 67zM319 744v-180h504v180
q0 55 -37 94t-94.5 60.5t-120.5 21.5q-62 0 -120 -21.5t-95 -60.5t-37 -94z" />
    <glyph glyph-name="partialdiff" unicode="&#x2202;" horiz-adv-x="1216" 
d="M260 1278q52 116 146 179.5t235 63.5q112 0 208.5 -57.5t169 -160.5t113.5 -240t41 -295q0 -237 -76.5 -414.5t-217.5 -275.5t-336 -98q-128 0 -231 54.5t-162.5 149t-59.5 214.5q0 155 100.5 277t282.5 197.5t424 88.5q-38 148 -114.5 240t-162.5 92q-51 0 -87 -33
t-45 -86zM919 733q-156 0 -280.5 -46.5t-197 -124.5t-72.5 -175q0 -81 51 -129.5t134 -48.5q100 0 181 68.5t130.5 187t53.5 268.5z" />
    <glyph glyph-name="Delta" unicode="&#x2206;" horiz-adv-x="1198" 
d="M108 0l-78 130l446 1000h246l446 -1000l-78 -130h-982zM377 250h444q-29 75 -52.5 132.5t-46.5 115.5t-51 133q-24 66 -37.5 113.5t-34.5 114.5q-21 -67 -34.5 -114.5t-37.5 -113.5q-27 -75 -50 -133t-46.5 -115.5t-53.5 -132.5z" />
    <glyph glyph-name="product" unicode="&#x220f;" horiz-adv-x="1640" 
d="M60 1260v240h1520v-240l-140 -10v-1650h-300v1650h-640v-1650h-300v1650z" />
    <glyph glyph-name="summation" unicode="&#x2211;" horiz-adv-x="1200" 
d="M130 1500h970v-250h-593l350 -500l-350 -500h588v-250h-951v220l411 530l-425 550v200z" />
    <glyph glyph-name="minus" unicode="&#x2212;" horiz-adv-x="1166" 
d="M130 635h906v-222h-906v222z" />
    <glyph glyph-name="uni2215" unicode="&#x2215;" horiz-adv-x="1177" 
d="M1013 1694l164 -94l-1013 -1755l-164 94z" />
    <glyph glyph-name="uni2219" unicode="&#x2219;" horiz-adv-x="660" 
d="M130 700q0 86 57.5 143t142.5 57q87 0 143.5 -57t56.5 -143q0 -87 -56.5 -143.5t-143.5 -56.5q-85 0 -142.5 56.5t-57.5 143.5z" />
    <glyph glyph-name="radical" unicode="&#x221a;" horiz-adv-x="1139" 
d="M222 640h-142v210h315l153 -369q41 -98 64 -190q9 59 20 121t26 136l225 1012h236l-347 -1560h-285z" />
    <glyph glyph-name="infinity" unicode="&#x221e;" horiz-adv-x="1976" 
d="M508 934q241 0 483 -270q119 140 235.5 205t244.5 65q130 0 230 -53.5t157.5 -146.5t57.5 -212q0 -123 -60.5 -221.5t-163.5 -156t-231 -57.5q-121 0 -231 61t-235 197q-117 -139 -221.5 -198.5t-232.5 -59.5q-135 0 -244 55t-173 149.5t-64 210.5q0 122 59.5 220
t161 155t227.5 57zM1461 299q98 0 156.5 66t58.5 152q0 96 -70 155.5t-170 59.5q-85 0 -163 -49.5t-165 -159.5q81 -106 173 -165t180 -59zM541 288q164 0 329 209q-79 109 -167 170t-183 61q-102 0 -161 -63.5t-59 -149.5q0 -93 67.5 -160t173.5 -67z" />
    <glyph glyph-name="integral" unicode="&#x222b;" horiz-adv-x="682" 
d="M-20 -70q130 0 190.5 72t60.5 211q0 149 -4 256.5t-10 195t-12.5 175t-10.5 195t-4 256.5q0 263 125 396t387 133v-250q-130 0 -190.5 -71.5t-60.5 -211.5q0 -149 4 -256.5t10.5 -195t12.5 -175t10 -195t4 -256.5q0 -263 -125 -396t-387 -133v250z" />
    <glyph glyph-name="approxequal" unicode="&#x2248;" horiz-adv-x="1360" 
d="M130 750q61 58 144 100.5t171 42.5q83 0 146.5 -25t118.5 -57t110 -57t121 -25q86 0 160 43.5t129 100.5v-226q-58 -59 -136.5 -99.5t-166.5 -40.5q-72 0 -133 25t-118.5 57t-116.5 57t-128 25q-86 0 -165 -42.5t-136 -104.5v226zM130 91v226q61 58 144 100.5t171 42.5
q83 0 146.5 -25t118.5 -57t110 -57t121 -25q86 0 160 43.5t129 100.5v-226q-58 -59 -136.5 -99.5t-166.5 -40.5q-72 0 -133 25t-118.5 57t-116.5 57t-128 25q-86 0 -165 -42.5t-136 -104.5z" />
    <glyph glyph-name="notequal" unicode="&#x2260;" horiz-adv-x="1312" 
d="M130 366h382l103 249h-485v205h571l95 230h185l-95 -230h296v-205h-382l-103 -249h485v-205h-570l-96 -231h-185l96 231h-297v205z" />
    <glyph glyph-name="lessequal" unicode="&#x2264;" horiz-adv-x="1146" 
d="M130 630v189l886 381v-240l-631 -235l631 -236v-240zM130 0v205h886v-205h-886z" />
    <glyph glyph-name="greaterequal" unicode="&#x2265;" horiz-adv-x="1146" 
d="M1015 630v189l-886 381v-240l631 -235l-631 -236v-240zM1015 0v205h-886v-205h886z" />
    <glyph glyph-name="lozenge" unicode="&#x25ca;" 
d="M60 660l460 681h172l459 -681l-460 -680h-170zM611 216l284 444l-284 444l-284 -444z" />
    <glyph glyph-name="f_f" unicode="&#xfb00;" horiz-adv-x="1608" 
d="M70 750v250h165v38q0 156 61.5 263.5t164.5 163t225 55.5q71 0 146 -19.5t148 -60.5l-101 -224q-40 25 -86 39.5t-90 14.5q-86 0 -133 -55.5t-47 -138.5v-76h409v135q0 122 53 208t140 131.5t188 45.5q66 0 133.5 -20t131.5 -62l-111 -203q-25 21 -53 28t-51 7
q-64 0 -103.5 -42.5t-39.5 -131.5v-96h243v-250h-243v-750h-288v750h-409v-750h-288v750h-165z" />
    <glyph glyph-name="fi" unicode="&#xfb01;" horiz-adv-x="1350" 
d="M235 1000v38q0 156 61.5 263.5t164.5 163t225 55.5q71 0 146 -19.5t148 -60.5l-101 -224q-40 25 -86 39.5t-90 14.5q-86 0 -133 -55.5t-47 -138.5v-76h697v-1000h-288v750h-409v-750h-288v750h-165v250h165z" />
    <glyph glyph-name="fl" unicode="&#xfb02;" horiz-adv-x="1301" 
d="M70 750v250h165v38q0 222 127 352t344 130q215 0 340 -129t125 -353v-1038h-288v1076q0 88 -49 141t-131 53t-131 -53t-49 -141v-76h283v-250h-283v-750h-288v750h-165z" />
    <glyph glyph-name="f_f_i" unicode="&#xfb03;" horiz-adv-x="2047" 
d="M70 750v250h165v38q0 156 61.5 263.5t164.5 163t225 55.5q71 0 146 -19.5t148 -60.5l-101 -224q-40 25 -86 39.5t-90 14.5q-86 0 -133 -55.5t-47 -138.5v-76h409v38q0 156 61.5 263.5t164.5 163t225 55.5q71 0 146 -19.5t148 -60.5l-101 -224q-40 25 -86 39.5t-90 14.5
q-86 0 -133 -55.5t-47 -138.5v-76h697v-1000h-288v750h-409v-750h-288v750h-409v-750h-288v750h-165z" />
    <glyph glyph-name="f_f_l" unicode="&#xfb04;" horiz-adv-x="1998" 
d="M235 1000v38q0 156 61.5 263.5t164.5 163t225 55.5q71 0 146 -19.5t148 -60.5l-101 -224q-40 25 -86 39.5t-90 14.5q-86 0 -133 -55.5t-47 -138.5v-76h411v38q0 222 127 352t344 130q215 0 340 -129t125 -353v-1038h-288v1076q0 88 -49 141t-131 53t-131 -53t-49 -141
v-76h283v-250h-283v-750h-288v750h-411v-750h-288v750h-165v250h165z" />
    <glyph glyph-name="longs_t" unicode="&#xfb05;" horiz-adv-x="1499" 
d="M70 1000h165v38q0 230 121.5 356t338.5 126q145 0 252 -54t165.5 -152t58.5 -229v-703q0 -68 44 -110t117 -42q52 0 107 23v-236q-96 -37 -187 -37q-178 0 -273.5 95.5t-95.5 273.5v144h-1v583q0 88 -49 141t-130 53q-82 0 -131 -53t-49 -141v-76h283v-250h-283v-750
h-288v750h-165v250z" />
    <glyph glyph-name="commaaccent" horiz-adv-x="590" 
d="M433 -46q27 -76 27 -155q0 -113 -53.5 -210.5t-148.5 -147.5l-128 111q40 34 60 84.5t20 105.5q0 90 -49 157z" />
    </font>
</defs>
</svg>
